M48
; DRILL file {KiCad (6.0.9)} date Thu Apr 20 15:38:16 2023
; FORMAT={-:-/ absolute / metric / decimal}
; #@! TF.CreationDate,2023-04-20T15:38:16-04:00
; #@! TF.GenerationSoftware,Kicad,Pcbnew,(6.0.9)
; #@! TF.FileFunction,Plated,1,2,Blind
FMAT,2
METRIC
; #@! TA.AperFunction,Plated,Buried,ViaDrill
T1C0.229
%
G90
G05
T1
X89.578Y-83.02
X89.578Y-84.62
X89.648Y-67.932
X89.648Y-69.532
X91.253Y-83.02
X91.253Y-84.62
X91.358Y-67.932
X91.358Y-69.532
X92.928Y-84.62
X92.939Y-83.058
X93.048Y-69.532
X93.087Y-67.933
X94.158Y-82.51
X94.234Y-84.353
X94.312Y-70.056
X94.361Y-68.148
X95.29Y-83.642
X95.297Y-81.372
X95.415Y-68.897
X95.437Y-71.181
X96.428Y-82.503
X96.436Y-80.233
X96.568Y-70.05
X96.576Y-72.32
X97.567Y-81.364
X97.575Y-79.094
X97.708Y-71.189
X97.715Y-73.459
X98.706Y-80.225
X98.713Y-77.955
X98.847Y-72.328
X98.855Y-74.599
X99.845Y-79.087
X99.873Y-77.216
X99.949Y-75.336
X99.986Y-73.467
X101.067Y-78.588
X101.194Y-76.987
X101.216Y-75.577
X101.295Y-73.99
X102.725Y-73.977
X102.725Y-75.577
X102.743Y-76.977
X102.743Y-78.577
X104.133Y-76.977
X104.133Y-78.577
X104.14Y-73.977
X104.14Y-75.577
X105.662Y-76.977
X105.662Y-78.577
X105.679Y-73.977
X105.679Y-75.577
X107.188Y-73.977
X107.188Y-75.577
X107.191Y-76.977
X107.191Y-78.577
X108.697Y-73.977
X108.697Y-75.577
X108.72Y-76.977
X108.72Y-78.577
X110.206Y-73.977
X110.206Y-75.577
X110.25Y-76.977
X110.25Y-78.577
X115.073Y-81.127
X115.073Y-82.347
X115.24Y-83.439
X115.951Y-84.201
X116.473Y-79.705
X116.473Y-81.127
X116.484Y-82.347
X117.043Y-84.52
X117.069Y-83.109
X117.961Y-73.087
X118.422Y-83.12
X118.422Y-84.52
X118.633Y-73.087
X118.633Y-74.487
X119.305Y-73.087
X119.305Y-74.487
X119.802Y-83.12
X119.802Y-84.52
X119.978Y-73.087
X119.978Y-74.487
X120.65Y-73.09
X120.65Y-74.487
X121.14Y-72.66
X121.181Y-83.12
X121.181Y-84.52
X121.22Y-59.573
X121.22Y-60.211
X121.22Y-60.848
X121.22Y-61.49
X121.22Y-62.123
X121.22Y-62.761
X121.22Y-63.398
X121.22Y-64.036
X121.22Y-64.673
X121.22Y-65.311
X121.22Y-71.36
X121.22Y-72.032
X121.37Y-74.36
X121.99Y-73.99
X122.43Y-73.39
X122.56Y-83.12
X122.56Y-84.52
X122.62Y-59.573
X122.62Y-60.211
X122.62Y-60.848
X122.62Y-61.49
X122.62Y-62.123
X122.62Y-62.761
X122.62Y-63.398
X122.62Y-64.036
X122.62Y-64.673
X122.62Y-65.311
X122.62Y-71.36
X122.62Y-72.032
X122.62Y-72.705
X123.939Y-83.12
X123.939Y-84.52
X125.318Y-83.12
X125.318Y-84.52
X126.698Y-83.12
X126.698Y-84.52
X128.077Y-83.12
X128.077Y-84.52
X129.456Y-83.12
X129.456Y-84.52
X130.835Y-83.12
X130.835Y-84.52
X132.207Y-84.531
X132.214Y-83.12
X133.426Y-83.49
X134.264Y-84.328
X135.458Y-84.328
X136.271Y-83.49
X137.534Y-83.12
X137.541Y-84.531
X138.839Y-83.12
X138.839Y-84.52
X140.145Y-83.12
X140.145Y-84.52
X141.45Y-83.12
X141.45Y-84.52
X142.755Y-83.12
X142.755Y-84.52
X144.061Y-83.12
X144.061Y-84.52
X145.366Y-83.12
X145.366Y-84.52
X146.61Y-71.49
X146.61Y-72.162
X146.61Y-72.83
X146.61Y-73.502
X146.61Y-74.175
X146.62Y-60.663
X146.62Y-61.27
X146.624Y-59.452
X146.624Y-60.059
X146.624Y-61.881
X146.624Y-62.488
X146.624Y-63.096
X146.624Y-63.703
X146.624Y-64.31
X146.624Y-64.918
X146.624Y-65.525
X146.624Y-66.132
X146.672Y-83.12
X146.672Y-84.52
X146.8Y-74.86
X147.24Y-75.46
X147.86Y-75.83
X147.977Y-83.12
X147.977Y-84.52
X148.01Y-71.49
X148.01Y-72.162
X148.01Y-72.83
X148.01Y-73.502
X148.02Y-60.663
X148.02Y-61.27
X148.024Y-59.452
X148.024Y-60.059
X148.024Y-61.881
X148.024Y-62.488
X148.024Y-63.096
X148.024Y-63.703
X148.024Y-64.31
X148.024Y-64.918
X148.024Y-65.525
X148.024Y-66.132
X148.09Y-74.13
X148.234Y-81.788
X148.26Y-80.67
X148.58Y-74.56
X148.58Y-75.957
X149.252Y-74.557
X149.252Y-75.957
X149.283Y-83.12
X149.283Y-84.52
X149.925Y-74.557
X149.925Y-75.957
X150.588Y-83.12
X150.588Y-84.52
X150.597Y-74.557
X150.597Y-75.957
X151.268Y-75.96
X151.269Y-74.557
X151.893Y-83.12
X151.893Y-84.52
X151.94Y-74.56
X151.94Y-75.96
X153.199Y-84.52
X153.213Y-83.109
X153.772Y-81.915
X154.508Y-84.099
X155.118Y-83.058
X155.169Y-80.665
X155.169Y-81.915
X158.496Y-74.955
X158.496Y-77.648
X159.671Y-78.09
X159.722Y-74.471
X159.893Y-76.251
X160.781Y-79.2
X160.802Y-76.958
X160.839Y-73.354
X160.854Y-75.602
X161.891Y-80.311
X161.912Y-78.069
X161.956Y-72.236
X161.971Y-74.485
X163.002Y-81.421
X163.023Y-79.179
X163.073Y-71.119
X163.088Y-73.368
X164.112Y-82.531
X164.133Y-80.29
X164.191Y-70.002
X164.205Y-72.251
X165.237Y-83.655
X165.244Y-81.4
X165.322Y-68.872
X165.322Y-71.134
X166.294Y-84.379
X166.34Y-82.497
X166.421Y-68.148
X166.425Y-70.03
X167.584Y-84.62
X167.604Y-83.02
X167.669Y-67.907
X167.689Y-69.507
X169.127Y-83.02
X169.127Y-84.62
X169.201Y-67.907
X169.201Y-69.507
X170.67Y-83.02
X170.67Y-84.62
X170.733Y-67.907
X170.733Y-69.507
X172.212Y-83.02
X172.212Y-84.62
X172.264Y-67.907
X172.264Y-69.507
X173.755Y-83.02
X173.755Y-84.62
X173.796Y-67.907
X173.796Y-69.507
X175.298Y-83.02
X175.298Y-84.62
X175.328Y-67.907
X175.328Y-69.507
X176.841Y-83.02
X176.841Y-84.62
X176.859Y-67.907
X176.859Y-69.507
X178.383Y-83.02
X178.383Y-84.62
X178.391Y-67.907
X178.391Y-69.507
X179.923Y-67.907
X179.923Y-69.507
X179.926Y-83.02
X179.926Y-84.62
T0
M30
