%TF.GenerationSoftware,KiCad,Pcbnew,(6.0.9)*%
%TF.CreationDate,2023-04-20T15:37:57-04:00*%
%TF.ProjectId,S23-16_PCB,5332332d-3136-45f5-9043-422e6b696361,2.0*%
%TF.SameCoordinates,Original*%
%TF.FileFunction,Legend,Bot*%
%TF.FilePolarity,Positive*%
%FSLAX46Y46*%
G04 Gerber Fmt 4.6, Leading zero omitted, Abs format (unit mm)*
G04 Created by KiCad (PCBNEW (6.0.9)) date 2023-04-20 15:37:57*
%MOMM*%
%LPD*%
G01*
G04 APERTURE LIST*
G04 Aperture macros list*
%AMFreePoly0*
4,1,22,0.500000,-0.750000,0.000000,-0.750000,0.000000,-0.745033,-0.079941,-0.743568,-0.215256,-0.701293,-0.333266,-0.622738,-0.424486,-0.514219,-0.481581,-0.384460,-0.499164,-0.250000,-0.500000,-0.250000,-0.500000,0.250000,-0.499164,0.250000,-0.499963,0.256109,-0.478152,0.396186,-0.417904,0.524511,-0.324060,0.630769,-0.204165,0.706417,-0.067858,0.745374,0.000000,0.744959,0.000000,0.750000,
0.500000,0.750000,0.500000,-0.750000,0.500000,-0.750000,$1*%
%AMFreePoly1*
4,1,20,0.000000,0.744959,0.073905,0.744508,0.209726,0.703889,0.328688,0.626782,0.421226,0.519385,0.479903,0.390333,0.500000,0.250000,0.500000,-0.250000,0.499851,-0.262216,0.476331,-0.402017,0.414519,-0.529596,0.319384,-0.634700,0.198574,-0.708877,0.061801,-0.746166,0.000000,-0.745033,0.000000,-0.750000,-0.500000,-0.750000,-0.500000,0.750000,0.000000,0.750000,0.000000,0.744959,
0.000000,0.744959,$1*%
G04 Aperture macros list end*
%ADD10C,0.355600*%
%ADD11C,0.150000*%
%ADD12C,0.120000*%
%ADD13C,0.200000*%
%ADD14R,4.500000X4.500000*%
%ADD15C,3.600000*%
%ADD16C,6.400000*%
%ADD17R,2.500000X2.500000*%
%ADD18R,4.200000X1.350000*%
%ADD19C,2.489200*%
%ADD20R,12.700000X4.826000*%
%ADD21R,2.438400X1.701800*%
%ADD22R,3.570000X3.570000*%
%ADD23C,1.270000*%
%ADD24R,2.380000X1.650000*%
%ADD25R,1.000000X1.600000*%
%ADD26R,3.600000X3.600000*%
%ADD27R,1.600000X1.600000*%
%ADD28R,2.810000X2.810000*%
%ADD29C,2.000000*%
%ADD30R,1.400000X1.400000*%
%ADD31C,1.400000*%
%ADD32FreePoly0,90.000000*%
%ADD33FreePoly1,90.000000*%
G04 APERTURE END LIST*
D10*
X116205000Y-128270000D02*
X151130000Y-128270000D01*
X151130000Y-128270000D02*
X151130000Y-146685000D01*
X151130000Y-146685000D02*
X116205000Y-146685000D01*
X116205000Y-146685000D02*
X116205000Y-128270000D01*
D11*
X159885000Y-106933904D02*
X159932619Y-107029142D01*
X159932619Y-107172000D01*
X159885000Y-107314857D01*
X159789761Y-107410095D01*
X159694523Y-107457714D01*
X159504047Y-107505333D01*
X159361190Y-107505333D01*
X159170714Y-107457714D01*
X159075476Y-107410095D01*
X158980238Y-107314857D01*
X158932619Y-107172000D01*
X158932619Y-107076761D01*
X158980238Y-106933904D01*
X159027857Y-106886285D01*
X159361190Y-106886285D01*
X159361190Y-107076761D01*
X158932619Y-106457714D02*
X159932619Y-106457714D01*
X158932619Y-105886285D01*
X159932619Y-105886285D01*
X158932619Y-105410095D02*
X159932619Y-105410095D01*
X159932619Y-105172000D01*
X159885000Y-105029142D01*
X159789761Y-104933904D01*
X159694523Y-104886285D01*
X159504047Y-104838666D01*
X159361190Y-104838666D01*
X159170714Y-104886285D01*
X159075476Y-104933904D01*
X158980238Y-105029142D01*
X158932619Y-105172000D01*
X158932619Y-105410095D01*
X128980819Y-104608380D02*
X128361771Y-104608380D01*
X128695104Y-104989333D01*
X128552247Y-104989333D01*
X128457009Y-105036952D01*
X128409390Y-105084571D01*
X128361771Y-105179809D01*
X128361771Y-105417904D01*
X128409390Y-105513142D01*
X128457009Y-105560761D01*
X128552247Y-105608380D01*
X128837961Y-105608380D01*
X128933200Y-105560761D01*
X128980819Y-105513142D01*
X128076057Y-104608380D02*
X127742723Y-105608380D01*
X127409390Y-104608380D01*
X127171295Y-104608380D02*
X126552247Y-104608380D01*
X126885580Y-104989333D01*
X126742723Y-104989333D01*
X126647485Y-105036952D01*
X126599866Y-105084571D01*
X126552247Y-105179809D01*
X126552247Y-105417904D01*
X126599866Y-105513142D01*
X126647485Y-105560761D01*
X126742723Y-105608380D01*
X127028438Y-105608380D01*
X127123676Y-105560761D01*
X127171295Y-105513142D01*
X126361771Y-105703619D02*
X125599866Y-105703619D01*
X125409390Y-105560761D02*
X125266533Y-105608380D01*
X125028438Y-105608380D01*
X124933200Y-105560761D01*
X124885580Y-105513142D01*
X124837961Y-105417904D01*
X124837961Y-105322666D01*
X124885580Y-105227428D01*
X124933200Y-105179809D01*
X125028438Y-105132190D01*
X125218914Y-105084571D01*
X125314152Y-105036952D01*
X125361771Y-104989333D01*
X125409390Y-104894095D01*
X125409390Y-104798857D01*
X125361771Y-104703619D01*
X125314152Y-104656000D01*
X125218914Y-104608380D01*
X124980819Y-104608380D01*
X124837961Y-104656000D01*
X124218914Y-105132190D02*
X124218914Y-105608380D01*
X124552247Y-104608380D02*
X124218914Y-105132190D01*
X123885580Y-104608380D01*
X123552247Y-105608380D02*
X123552247Y-104608380D01*
X122980819Y-105608380D01*
X122980819Y-104608380D01*
X159988095Y-138085580D02*
X159369047Y-138085580D01*
X159702380Y-138466533D01*
X159559523Y-138466533D01*
X159464285Y-138514152D01*
X159416666Y-138561771D01*
X159369047Y-138657009D01*
X159369047Y-138895104D01*
X159416666Y-138990342D01*
X159464285Y-139037961D01*
X159559523Y-139085580D01*
X159845238Y-139085580D01*
X159940476Y-139037961D01*
X159988095Y-138990342D01*
X159083333Y-138085580D02*
X158750000Y-139085580D01*
X158416666Y-138085580D01*
X158178571Y-138085580D02*
X157559523Y-138085580D01*
X157892857Y-138466533D01*
X157750000Y-138466533D01*
X157654761Y-138514152D01*
X157607142Y-138561771D01*
X157559523Y-138657009D01*
X157559523Y-138895104D01*
X157607142Y-138990342D01*
X157654761Y-139037961D01*
X157750000Y-139085580D01*
X158035714Y-139085580D01*
X158130952Y-139037961D01*
X158178571Y-138990342D01*
X141223095Y-144232380D02*
X141699285Y-144232380D01*
X141746904Y-144708571D01*
X141699285Y-144660952D01*
X141604047Y-144613333D01*
X141365952Y-144613333D01*
X141270714Y-144660952D01*
X141223095Y-144708571D01*
X141175476Y-144803809D01*
X141175476Y-145041904D01*
X141223095Y-145137142D01*
X141270714Y-145184761D01*
X141365952Y-145232380D01*
X141604047Y-145232380D01*
X141699285Y-145184761D01*
X141746904Y-145137142D01*
X140223095Y-144280000D02*
X140318333Y-144232380D01*
X140461190Y-144232380D01*
X140604047Y-144280000D01*
X140699285Y-144375238D01*
X140746904Y-144470476D01*
X140794523Y-144660952D01*
X140794523Y-144803809D01*
X140746904Y-144994285D01*
X140699285Y-145089523D01*
X140604047Y-145184761D01*
X140461190Y-145232380D01*
X140365952Y-145232380D01*
X140223095Y-145184761D01*
X140175476Y-145137142D01*
X140175476Y-144803809D01*
X140365952Y-144803809D01*
X139985000Y-145327619D02*
X139223095Y-145327619D01*
X138651666Y-144708571D02*
X138985000Y-144708571D01*
X138985000Y-145232380D02*
X138985000Y-144232380D01*
X138508809Y-144232380D01*
X138127857Y-145232380D02*
X138127857Y-144232380D01*
X137794523Y-144946666D01*
X137461190Y-144232380D01*
X137461190Y-145232380D01*
X136413571Y-145137142D02*
X136461190Y-145184761D01*
X136604047Y-145232380D01*
X136699285Y-145232380D01*
X136842142Y-145184761D01*
X136937380Y-145089523D01*
X136985000Y-144994285D01*
X137032619Y-144803809D01*
X137032619Y-144660952D01*
X136985000Y-144470476D01*
X136937380Y-144375238D01*
X136842142Y-144280000D01*
X136699285Y-144232380D01*
X136604047Y-144232380D01*
X136461190Y-144280000D01*
X136413571Y-144327619D01*
X136223095Y-145327619D02*
X135461190Y-145327619D01*
X134889761Y-144708571D02*
X134746904Y-144756190D01*
X134699285Y-144803809D01*
X134651666Y-144899047D01*
X134651666Y-145041904D01*
X134699285Y-145137142D01*
X134746904Y-145184761D01*
X134842142Y-145232380D01*
X135223095Y-145232380D01*
X135223095Y-144232380D01*
X134889761Y-144232380D01*
X134794523Y-144280000D01*
X134746904Y-144327619D01*
X134699285Y-144422857D01*
X134699285Y-144518095D01*
X134746904Y-144613333D01*
X134794523Y-144660952D01*
X134889761Y-144708571D01*
X135223095Y-144708571D01*
X134223095Y-145232380D02*
X134223095Y-144232380D01*
X133985000Y-144232380D01*
X133842142Y-144280000D01*
X133746904Y-144375238D01*
X133699285Y-144470476D01*
X133651666Y-144660952D01*
X133651666Y-144803809D01*
X133699285Y-144994285D01*
X133746904Y-145089523D01*
X133842142Y-145184761D01*
X133985000Y-145232380D01*
X134223095Y-145232380D01*
X133223095Y-144232380D02*
X133223095Y-145041904D01*
X133175476Y-145137142D01*
X133127857Y-145184761D01*
X133032619Y-145232380D01*
X132842142Y-145232380D01*
X132746904Y-145184761D01*
X132699285Y-145137142D01*
X132651666Y-145041904D01*
X132651666Y-144232380D01*
X131604047Y-145137142D02*
X131651666Y-145184761D01*
X131794523Y-145232380D01*
X131889761Y-145232380D01*
X132032619Y-145184761D01*
X132127857Y-145089523D01*
X132175476Y-144994285D01*
X132223095Y-144803809D01*
X132223095Y-144660952D01*
X132175476Y-144470476D01*
X132127857Y-144375238D01*
X132032619Y-144280000D01*
X131889761Y-144232380D01*
X131794523Y-144232380D01*
X131651666Y-144280000D01*
X131604047Y-144327619D01*
X131413571Y-145327619D02*
X130651666Y-145327619D01*
X130413571Y-145232380D02*
X130413571Y-144565714D01*
X130413571Y-144756190D02*
X130365952Y-144660952D01*
X130318333Y-144613333D01*
X130223095Y-144565714D01*
X130127857Y-144565714D01*
X129413571Y-145184761D02*
X129508809Y-145232380D01*
X129699285Y-145232380D01*
X129794523Y-145184761D01*
X129842142Y-145089523D01*
X129842142Y-144708571D01*
X129794523Y-144613333D01*
X129699285Y-144565714D01*
X129508809Y-144565714D01*
X129413571Y-144613333D01*
X129365952Y-144708571D01*
X129365952Y-144803809D01*
X129842142Y-144899047D01*
X129032619Y-144565714D02*
X128794523Y-145232380D01*
X128556428Y-144565714D01*
X128223095Y-144327619D02*
X128175476Y-144280000D01*
X128080238Y-144232380D01*
X127842142Y-144232380D01*
X127746904Y-144280000D01*
X127699285Y-144327619D01*
X127651666Y-144422857D01*
X127651666Y-144518095D01*
X127699285Y-144660952D01*
X128270714Y-145232380D01*
X127651666Y-145232380D01*
X127223095Y-145137142D02*
X127175476Y-145184761D01*
X127223095Y-145232380D01*
X127270714Y-145184761D01*
X127223095Y-145137142D01*
X127223095Y-145232380D01*
X126223095Y-145232380D02*
X126794523Y-145232380D01*
X126508809Y-145232380D02*
X126508809Y-144232380D01*
X126604047Y-144375238D01*
X126699285Y-144470476D01*
X126794523Y-144518095D01*
X92297142Y-66587619D02*
X92392380Y-66540000D01*
X92487619Y-66444761D01*
X92630476Y-66301904D01*
X92725714Y-66254285D01*
X92820952Y-66254285D01*
X92773333Y-66492380D02*
X92868571Y-66444761D01*
X92963809Y-66349523D01*
X93011428Y-66159047D01*
X93011428Y-65825714D01*
X92963809Y-65635238D01*
X92868571Y-65540000D01*
X92773333Y-65492380D01*
X92582857Y-65492380D01*
X92487619Y-65540000D01*
X92392380Y-65635238D01*
X92344761Y-65825714D01*
X92344761Y-66159047D01*
X92392380Y-66349523D01*
X92487619Y-66444761D01*
X92582857Y-66492380D01*
X92773333Y-66492380D01*
X92154285Y-66587619D02*
X91392380Y-66587619D01*
X91297142Y-65492380D02*
X90725714Y-65492380D01*
X91011428Y-66492380D02*
X91011428Y-65492380D01*
X90487619Y-65492380D02*
X89820952Y-66492380D01*
X89820952Y-65492380D02*
X90487619Y-66492380D01*
X113744000Y-91902019D02*
X113696380Y-91854400D01*
X113601142Y-91806780D01*
X113363047Y-91806780D01*
X113267809Y-91854400D01*
X113220190Y-91902019D01*
X113172571Y-91997257D01*
X113172571Y-92092495D01*
X113220190Y-92235352D01*
X113791619Y-92806780D01*
X113172571Y-92806780D01*
X112886857Y-91806780D02*
X112553523Y-92806780D01*
X112220190Y-91806780D01*
X111410666Y-91806780D02*
X111886857Y-91806780D01*
X111934476Y-92282971D01*
X111886857Y-92235352D01*
X111791619Y-92187733D01*
X111553523Y-92187733D01*
X111458285Y-92235352D01*
X111410666Y-92282971D01*
X111363047Y-92378209D01*
X111363047Y-92616304D01*
X111410666Y-92711542D01*
X111458285Y-92759161D01*
X111553523Y-92806780D01*
X111791619Y-92806780D01*
X111886857Y-92759161D01*
X111934476Y-92711542D01*
X111172571Y-92902019D02*
X110410666Y-92902019D01*
X109696380Y-92806780D02*
X110172571Y-92806780D01*
X110172571Y-91806780D01*
X109363047Y-92806780D02*
X109363047Y-91806780D01*
X109124952Y-91806780D01*
X108982095Y-91854400D01*
X108886857Y-91949638D01*
X108839238Y-92044876D01*
X108791619Y-92235352D01*
X108791619Y-92378209D01*
X108839238Y-92568685D01*
X108886857Y-92663923D01*
X108982095Y-92759161D01*
X109124952Y-92806780D01*
X109363047Y-92806780D01*
X108172571Y-91806780D02*
X107982095Y-91806780D01*
X107886857Y-91854400D01*
X107791619Y-91949638D01*
X107744000Y-92140114D01*
X107744000Y-92473447D01*
X107791619Y-92663923D01*
X107886857Y-92759161D01*
X107982095Y-92806780D01*
X108172571Y-92806780D01*
X108267809Y-92759161D01*
X108363047Y-92663923D01*
X108410666Y-92473447D01*
X108410666Y-92140114D01*
X108363047Y-91949638D01*
X108267809Y-91854400D01*
X108172571Y-91806780D01*
X166552619Y-109291190D02*
X166552619Y-109862619D01*
X166552619Y-109576904D02*
X167552619Y-109576904D01*
X167409761Y-109672142D01*
X167314523Y-109767380D01*
X167266904Y-109862619D01*
X167552619Y-109005476D02*
X166552619Y-108672142D01*
X167552619Y-108338809D01*
X167124047Y-107862619D02*
X167171666Y-107957857D01*
X167219285Y-108005476D01*
X167314523Y-108053095D01*
X167362142Y-108053095D01*
X167457380Y-108005476D01*
X167505000Y-107957857D01*
X167552619Y-107862619D01*
X167552619Y-107672142D01*
X167505000Y-107576904D01*
X167457380Y-107529285D01*
X167362142Y-107481666D01*
X167314523Y-107481666D01*
X167219285Y-107529285D01*
X167171666Y-107576904D01*
X167124047Y-107672142D01*
X167124047Y-107862619D01*
X167076428Y-107957857D01*
X167028809Y-108005476D01*
X166933571Y-108053095D01*
X166743095Y-108053095D01*
X166647857Y-108005476D01*
X166600238Y-107957857D01*
X166552619Y-107862619D01*
X166552619Y-107672142D01*
X166600238Y-107576904D01*
X166647857Y-107529285D01*
X166743095Y-107481666D01*
X166933571Y-107481666D01*
X167028809Y-107529285D01*
X167076428Y-107576904D01*
X167124047Y-107672142D01*
X166457380Y-107291190D02*
X166457380Y-106529285D01*
X167076428Y-106291190D02*
X167076428Y-105957857D01*
X166552619Y-105815000D02*
X166552619Y-106291190D01*
X167552619Y-106291190D01*
X167552619Y-105815000D01*
X166552619Y-105386428D02*
X167552619Y-105386428D01*
X166552619Y-104815000D01*
X167552619Y-104815000D01*
X122011771Y-86405980D02*
X122583200Y-86405980D01*
X122297485Y-86405980D02*
X122297485Y-85405980D01*
X122392723Y-85548838D01*
X122487961Y-85644076D01*
X122583200Y-85691695D01*
X121726057Y-85405980D02*
X121392723Y-86405980D01*
X121059390Y-85405980D01*
X120583200Y-85834552D02*
X120678438Y-85786933D01*
X120726057Y-85739314D01*
X120773676Y-85644076D01*
X120773676Y-85596457D01*
X120726057Y-85501219D01*
X120678438Y-85453600D01*
X120583200Y-85405980D01*
X120392723Y-85405980D01*
X120297485Y-85453600D01*
X120249866Y-85501219D01*
X120202247Y-85596457D01*
X120202247Y-85644076D01*
X120249866Y-85739314D01*
X120297485Y-85786933D01*
X120392723Y-85834552D01*
X120583200Y-85834552D01*
X120678438Y-85882171D01*
X120726057Y-85929790D01*
X120773676Y-86025028D01*
X120773676Y-86215504D01*
X120726057Y-86310742D01*
X120678438Y-86358361D01*
X120583200Y-86405980D01*
X120392723Y-86405980D01*
X120297485Y-86358361D01*
X120249866Y-86310742D01*
X120202247Y-86215504D01*
X120202247Y-86025028D01*
X120249866Y-85929790D01*
X120297485Y-85882171D01*
X120392723Y-85834552D01*
X120011771Y-86501219D02*
X119249866Y-86501219D01*
X118535580Y-86405980D02*
X119011771Y-86405980D01*
X119011771Y-85405980D01*
X118202247Y-86405980D02*
X118202247Y-85405980D01*
X117964152Y-85405980D01*
X117821295Y-85453600D01*
X117726057Y-85548838D01*
X117678438Y-85644076D01*
X117630819Y-85834552D01*
X117630819Y-85977409D01*
X117678438Y-86167885D01*
X117726057Y-86263123D01*
X117821295Y-86358361D01*
X117964152Y-86405980D01*
X118202247Y-86405980D01*
X117011771Y-85405980D02*
X116821295Y-85405980D01*
X116726057Y-85453600D01*
X116630819Y-85548838D01*
X116583200Y-85739314D01*
X116583200Y-86072647D01*
X116630819Y-86263123D01*
X116726057Y-86358361D01*
X116821295Y-86405980D01*
X117011771Y-86405980D01*
X117107009Y-86358361D01*
X117202247Y-86263123D01*
X117249866Y-86072647D01*
X117249866Y-85739314D01*
X117202247Y-85548838D01*
X117107009Y-85453600D01*
X117011771Y-85405980D01*
X152265000Y-106933904D02*
X152312619Y-107029142D01*
X152312619Y-107172000D01*
X152265000Y-107314857D01*
X152169761Y-107410095D01*
X152074523Y-107457714D01*
X151884047Y-107505333D01*
X151741190Y-107505333D01*
X151550714Y-107457714D01*
X151455476Y-107410095D01*
X151360238Y-107314857D01*
X151312619Y-107172000D01*
X151312619Y-107076761D01*
X151360238Y-106933904D01*
X151407857Y-106886285D01*
X151741190Y-106886285D01*
X151741190Y-107076761D01*
X151312619Y-106457714D02*
X152312619Y-106457714D01*
X151312619Y-105886285D01*
X152312619Y-105886285D01*
X151312619Y-105410095D02*
X152312619Y-105410095D01*
X152312619Y-105172000D01*
X152265000Y-105029142D01*
X152169761Y-104933904D01*
X152074523Y-104886285D01*
X151884047Y-104838666D01*
X151741190Y-104838666D01*
X151550714Y-104886285D01*
X151455476Y-104933904D01*
X151360238Y-105029142D01*
X151312619Y-105172000D01*
X151312619Y-105410095D01*
X169140238Y-98400857D02*
X169092619Y-98258000D01*
X169092619Y-98019904D01*
X169140238Y-97924666D01*
X169187857Y-97877047D01*
X169283095Y-97829428D01*
X169378333Y-97829428D01*
X169473571Y-97877047D01*
X169521190Y-97924666D01*
X169568809Y-98019904D01*
X169616428Y-98210380D01*
X169664047Y-98305619D01*
X169711666Y-98353238D01*
X169806904Y-98400857D01*
X169902142Y-98400857D01*
X169997380Y-98353238D01*
X170045000Y-98305619D01*
X170092619Y-98210380D01*
X170092619Y-97972285D01*
X170045000Y-97829428D01*
X169092619Y-97400857D02*
X170092619Y-97400857D01*
X169092619Y-96829428D01*
X170092619Y-96829428D01*
X168997380Y-96591333D02*
X168997380Y-95829428D01*
X169140238Y-95638952D02*
X169092619Y-95496095D01*
X169092619Y-95258000D01*
X169140238Y-95162761D01*
X169187857Y-95115142D01*
X169283095Y-95067523D01*
X169378333Y-95067523D01*
X169473571Y-95115142D01*
X169521190Y-95162761D01*
X169568809Y-95258000D01*
X169616428Y-95448476D01*
X169664047Y-95543714D01*
X169711666Y-95591333D01*
X169806904Y-95638952D01*
X169902142Y-95638952D01*
X169997380Y-95591333D01*
X170045000Y-95543714D01*
X170092619Y-95448476D01*
X170092619Y-95210380D01*
X170045000Y-95067523D01*
X169616428Y-94638952D02*
X169616428Y-94305619D01*
X169092619Y-94162761D02*
X169092619Y-94638952D01*
X170092619Y-94638952D01*
X170092619Y-94162761D01*
X169092619Y-93734190D02*
X170092619Y-93734190D01*
X169092619Y-93162761D01*
X170092619Y-93162761D01*
X159877047Y-123794780D02*
X160448476Y-123794780D01*
X160162761Y-123794780D02*
X160162761Y-122794780D01*
X160258000Y-122937638D01*
X160353238Y-123032876D01*
X160448476Y-123080495D01*
X159591333Y-122794780D02*
X159258000Y-123794780D01*
X158924666Y-122794780D01*
X158448476Y-123223352D02*
X158543714Y-123175733D01*
X158591333Y-123128114D01*
X158638952Y-123032876D01*
X158638952Y-122985257D01*
X158591333Y-122890019D01*
X158543714Y-122842400D01*
X158448476Y-122794780D01*
X158258000Y-122794780D01*
X158162761Y-122842400D01*
X158115142Y-122890019D01*
X158067523Y-122985257D01*
X158067523Y-123032876D01*
X158115142Y-123128114D01*
X158162761Y-123175733D01*
X158258000Y-123223352D01*
X158448476Y-123223352D01*
X158543714Y-123270971D01*
X158591333Y-123318590D01*
X158638952Y-123413828D01*
X158638952Y-123604304D01*
X158591333Y-123699542D01*
X158543714Y-123747161D01*
X158448476Y-123794780D01*
X158258000Y-123794780D01*
X158162761Y-123747161D01*
X158115142Y-123699542D01*
X158067523Y-123604304D01*
X158067523Y-123413828D01*
X158115142Y-123318590D01*
X158162761Y-123270971D01*
X158258000Y-123223352D01*
X178776190Y-66587619D02*
X178871428Y-66540000D01*
X178966666Y-66444761D01*
X179109523Y-66301904D01*
X179204761Y-66254285D01*
X179300000Y-66254285D01*
X179252380Y-66492380D02*
X179347619Y-66444761D01*
X179442857Y-66349523D01*
X179490476Y-66159047D01*
X179490476Y-65825714D01*
X179442857Y-65635238D01*
X179347619Y-65540000D01*
X179252380Y-65492380D01*
X179061904Y-65492380D01*
X178966666Y-65540000D01*
X178871428Y-65635238D01*
X178823809Y-65825714D01*
X178823809Y-66159047D01*
X178871428Y-66349523D01*
X178966666Y-66444761D01*
X179061904Y-66492380D01*
X179252380Y-66492380D01*
X178633333Y-66587619D02*
X177871428Y-66587619D01*
X177061904Y-66492380D02*
X177395238Y-66016190D01*
X177633333Y-66492380D02*
X177633333Y-65492380D01*
X177252380Y-65492380D01*
X177157142Y-65540000D01*
X177109523Y-65587619D01*
X177061904Y-65682857D01*
X177061904Y-65825714D01*
X177109523Y-65920952D01*
X177157142Y-65968571D01*
X177252380Y-66016190D01*
X177633333Y-66016190D01*
X176728571Y-65492380D02*
X176061904Y-66492380D01*
X176061904Y-65492380D02*
X176728571Y-66492380D01*
X162425000Y-106933904D02*
X162472619Y-107029142D01*
X162472619Y-107172000D01*
X162425000Y-107314857D01*
X162329761Y-107410095D01*
X162234523Y-107457714D01*
X162044047Y-107505333D01*
X161901190Y-107505333D01*
X161710714Y-107457714D01*
X161615476Y-107410095D01*
X161520238Y-107314857D01*
X161472619Y-107172000D01*
X161472619Y-107076761D01*
X161520238Y-106933904D01*
X161567857Y-106886285D01*
X161901190Y-106886285D01*
X161901190Y-107076761D01*
X161472619Y-106457714D02*
X162472619Y-106457714D01*
X161472619Y-105886285D01*
X162472619Y-105886285D01*
X161472619Y-105410095D02*
X162472619Y-105410095D01*
X162472619Y-105172000D01*
X162425000Y-105029142D01*
X162329761Y-104933904D01*
X162234523Y-104886285D01*
X162044047Y-104838666D01*
X161901190Y-104838666D01*
X161710714Y-104886285D01*
X161615476Y-104933904D01*
X161520238Y-105029142D01*
X161472619Y-105172000D01*
X161472619Y-105410095D01*
X98105504Y-92095580D02*
X98105504Y-91095580D01*
X97724552Y-91095580D01*
X97629314Y-91143200D01*
X97581695Y-91190819D01*
X97534076Y-91286057D01*
X97534076Y-91428914D01*
X97581695Y-91524152D01*
X97629314Y-91571771D01*
X97724552Y-91619390D01*
X98105504Y-91619390D01*
X97153123Y-91809866D02*
X96676933Y-91809866D01*
X97248361Y-92095580D02*
X96915028Y-91095580D01*
X96581695Y-92095580D01*
X96486457Y-92190819D02*
X95724552Y-92190819D01*
X95629314Y-91095580D02*
X95295980Y-92095580D01*
X94962647Y-91095580D01*
X94105504Y-91143200D02*
X94200742Y-91095580D01*
X94343600Y-91095580D01*
X94486457Y-91143200D01*
X94581695Y-91238438D01*
X94629314Y-91333676D01*
X94676933Y-91524152D01*
X94676933Y-91667009D01*
X94629314Y-91857485D01*
X94581695Y-91952723D01*
X94486457Y-92047961D01*
X94343600Y-92095580D01*
X94248361Y-92095580D01*
X94105504Y-92047961D01*
X94057885Y-92000342D01*
X94057885Y-91667009D01*
X94248361Y-91667009D01*
X93676933Y-91809866D02*
X93200742Y-91809866D01*
X93772171Y-92095580D02*
X93438838Y-91095580D01*
X93105504Y-92095580D01*
X92915028Y-91095580D02*
X92343600Y-91095580D01*
X92629314Y-92095580D02*
X92629314Y-91095580D01*
X92010266Y-91571771D02*
X91676933Y-91571771D01*
X91534076Y-92095580D02*
X92010266Y-92095580D01*
X92010266Y-91095580D01*
X91534076Y-91095580D01*
X179157142Y-86812380D02*
X179157142Y-85812380D01*
X178919047Y-86907619D02*
X178157142Y-86907619D01*
X177347619Y-86812380D02*
X177680952Y-86336190D01*
X177919047Y-86812380D02*
X177919047Y-85812380D01*
X177538095Y-85812380D01*
X177442857Y-85860000D01*
X177395238Y-85907619D01*
X177347619Y-86002857D01*
X177347619Y-86145714D01*
X177395238Y-86240952D01*
X177442857Y-86288571D01*
X177538095Y-86336190D01*
X177919047Y-86336190D01*
X177014285Y-85812380D02*
X176347619Y-86812380D01*
X176347619Y-85812380D02*
X177014285Y-86812380D01*
X170092619Y-110600761D02*
X169092619Y-109934095D01*
X170092619Y-109934095D02*
X169092619Y-110600761D01*
X170092619Y-109696000D02*
X170092619Y-109124571D01*
X169092619Y-109410285D02*
X170092619Y-109410285D01*
X169378333Y-108838857D02*
X169378333Y-108362666D01*
X169092619Y-108934095D02*
X170092619Y-108600761D01*
X169092619Y-108267428D01*
X169092619Y-107457904D02*
X169092619Y-107934095D01*
X170092619Y-107934095D01*
X168997380Y-107362666D02*
X168997380Y-106600761D01*
X169616428Y-106362666D02*
X169616428Y-106029333D01*
X169092619Y-105886476D02*
X169092619Y-106362666D01*
X170092619Y-106362666D01*
X170092619Y-105886476D01*
X169092619Y-105457904D02*
X170092619Y-105457904D01*
X169092619Y-104886476D01*
X170092619Y-104886476D01*
X160012000Y-97789904D02*
X160059619Y-97885142D01*
X160059619Y-98028000D01*
X160012000Y-98170857D01*
X159916761Y-98266095D01*
X159821523Y-98313714D01*
X159631047Y-98361333D01*
X159488190Y-98361333D01*
X159297714Y-98313714D01*
X159202476Y-98266095D01*
X159107238Y-98170857D01*
X159059619Y-98028000D01*
X159059619Y-97932761D01*
X159107238Y-97789904D01*
X159154857Y-97742285D01*
X159488190Y-97742285D01*
X159488190Y-97932761D01*
X159059619Y-97313714D02*
X160059619Y-97313714D01*
X159059619Y-96742285D01*
X160059619Y-96742285D01*
X159059619Y-96266095D02*
X160059619Y-96266095D01*
X160059619Y-96028000D01*
X160012000Y-95885142D01*
X159916761Y-95789904D01*
X159821523Y-95742285D01*
X159631047Y-95694666D01*
X159488190Y-95694666D01*
X159297714Y-95742285D01*
X159202476Y-95789904D01*
X159107238Y-95885142D01*
X159059619Y-96028000D01*
X159059619Y-96266095D01*
X156773571Y-98408904D02*
X156773571Y-97647000D01*
X156392619Y-98027952D02*
X157154523Y-98027952D01*
X157392619Y-97266047D02*
X157392619Y-96647000D01*
X157011666Y-96980333D01*
X157011666Y-96837476D01*
X156964047Y-96742238D01*
X156916428Y-96694619D01*
X156821190Y-96647000D01*
X156583095Y-96647000D01*
X156487857Y-96694619D01*
X156440238Y-96742238D01*
X156392619Y-96837476D01*
X156392619Y-97123190D01*
X156440238Y-97218428D01*
X156487857Y-97266047D01*
X157392619Y-96361285D02*
X156392619Y-96027952D01*
X157392619Y-95694619D01*
X157392619Y-95456523D02*
X157392619Y-94837476D01*
X157011666Y-95170809D01*
X157011666Y-95027952D01*
X156964047Y-94932714D01*
X156916428Y-94885095D01*
X156821190Y-94837476D01*
X156583095Y-94837476D01*
X156487857Y-94885095D01*
X156440238Y-94932714D01*
X156392619Y-95027952D01*
X156392619Y-95313666D01*
X156440238Y-95408904D01*
X156487857Y-95456523D01*
X161599619Y-98313619D02*
X162599619Y-98313619D01*
X162599619Y-97932666D01*
X162552000Y-97837428D01*
X162504380Y-97789809D01*
X162409142Y-97742190D01*
X162266285Y-97742190D01*
X162171047Y-97789809D01*
X162123428Y-97837428D01*
X162075809Y-97932666D01*
X162075809Y-98313619D01*
X161885333Y-97361238D02*
X161885333Y-96885047D01*
X161599619Y-97456476D02*
X162599619Y-97123142D01*
X161599619Y-96789809D01*
X161504380Y-96694571D02*
X161504380Y-95932666D01*
X162123428Y-95694571D02*
X162123428Y-95361238D01*
X161599619Y-95218380D02*
X161599619Y-95694571D01*
X162599619Y-95694571D01*
X162599619Y-95218380D01*
X161599619Y-94789809D02*
X162599619Y-94789809D01*
X161599619Y-94218380D01*
X162599619Y-94218380D01*
X117163600Y-107148380D02*
X117639790Y-107148380D01*
X117687409Y-107624571D01*
X117639790Y-107576952D01*
X117544552Y-107529333D01*
X117306457Y-107529333D01*
X117211219Y-107576952D01*
X117163600Y-107624571D01*
X117115980Y-107719809D01*
X117115980Y-107957904D01*
X117163600Y-108053142D01*
X117211219Y-108100761D01*
X117306457Y-108148380D01*
X117544552Y-108148380D01*
X117639790Y-108100761D01*
X117687409Y-108053142D01*
X116830266Y-107148380D02*
X116496933Y-108148380D01*
X116163600Y-107148380D01*
X116068361Y-108243619D02*
X115306457Y-108243619D01*
X115115980Y-108100761D02*
X114973123Y-108148380D01*
X114735028Y-108148380D01*
X114639790Y-108100761D01*
X114592171Y-108053142D01*
X114544552Y-107957904D01*
X114544552Y-107862666D01*
X114592171Y-107767428D01*
X114639790Y-107719809D01*
X114735028Y-107672190D01*
X114925504Y-107624571D01*
X115020742Y-107576952D01*
X115068361Y-107529333D01*
X115115980Y-107434095D01*
X115115980Y-107338857D01*
X115068361Y-107243619D01*
X115020742Y-107196000D01*
X114925504Y-107148380D01*
X114687409Y-107148380D01*
X114544552Y-107196000D01*
X113925504Y-107672190D02*
X113925504Y-108148380D01*
X114258838Y-107148380D02*
X113925504Y-107672190D01*
X113592171Y-107148380D01*
X113258838Y-108148380D02*
X113258838Y-107148380D01*
X112687409Y-108148380D01*
X112687409Y-107148380D01*
X154233571Y-98408904D02*
X154233571Y-97647000D01*
X153852619Y-98027952D02*
X154614523Y-98027952D01*
X153852619Y-96647000D02*
X153852619Y-97218428D01*
X153852619Y-96932714D02*
X154852619Y-96932714D01*
X154709761Y-97027952D01*
X154614523Y-97123190D01*
X154566904Y-97218428D01*
X154852619Y-96361285D02*
X153852619Y-96027952D01*
X154852619Y-95694619D01*
X154424047Y-95218428D02*
X154471666Y-95313666D01*
X154519285Y-95361285D01*
X154614523Y-95408904D01*
X154662142Y-95408904D01*
X154757380Y-95361285D01*
X154805000Y-95313666D01*
X154852619Y-95218428D01*
X154852619Y-95027952D01*
X154805000Y-94932714D01*
X154757380Y-94885095D01*
X154662142Y-94837476D01*
X154614523Y-94837476D01*
X154519285Y-94885095D01*
X154471666Y-94932714D01*
X154424047Y-95027952D01*
X154424047Y-95218428D01*
X154376428Y-95313666D01*
X154328809Y-95361285D01*
X154233571Y-95408904D01*
X154043095Y-95408904D01*
X153947857Y-95361285D01*
X153900238Y-95313666D01*
X153852619Y-95218428D01*
X153852619Y-95027952D01*
X153900238Y-94932714D01*
X153947857Y-94885095D01*
X154043095Y-94837476D01*
X154233571Y-94837476D01*
X154328809Y-94885095D01*
X154376428Y-94932714D01*
X154424047Y-95027952D01*
X92678095Y-86812380D02*
X92678095Y-85812380D01*
X92440000Y-86907619D02*
X91678095Y-86907619D01*
X91582857Y-85812380D02*
X91011428Y-85812380D01*
X91297142Y-86812380D02*
X91297142Y-85812380D01*
X90773333Y-85812380D02*
X90106666Y-86812380D01*
X90106666Y-85812380D02*
X90773333Y-86812380D01*
X174172619Y-98345428D02*
X175172619Y-98345428D01*
X174458333Y-98012095D01*
X175172619Y-97678761D01*
X174172619Y-97678761D01*
X175172619Y-97012095D02*
X175172619Y-96821619D01*
X175125000Y-96726380D01*
X175029761Y-96631142D01*
X174839285Y-96583523D01*
X174505952Y-96583523D01*
X174315476Y-96631142D01*
X174220238Y-96726380D01*
X174172619Y-96821619D01*
X174172619Y-97012095D01*
X174220238Y-97107333D01*
X174315476Y-97202571D01*
X174505952Y-97250190D01*
X174839285Y-97250190D01*
X175029761Y-97202571D01*
X175125000Y-97107333D01*
X175172619Y-97012095D01*
X174220238Y-96202571D02*
X174172619Y-96059714D01*
X174172619Y-95821619D01*
X174220238Y-95726380D01*
X174267857Y-95678761D01*
X174363095Y-95631142D01*
X174458333Y-95631142D01*
X174553571Y-95678761D01*
X174601190Y-95726380D01*
X174648809Y-95821619D01*
X174696428Y-96012095D01*
X174744047Y-96107333D01*
X174791666Y-96154952D01*
X174886904Y-96202571D01*
X174982142Y-96202571D01*
X175077380Y-96154952D01*
X175125000Y-96107333D01*
X175172619Y-96012095D01*
X175172619Y-95774000D01*
X175125000Y-95631142D01*
X174172619Y-95202571D02*
X175172619Y-95202571D01*
X109129200Y-103627180D02*
X109129200Y-102627180D01*
X108748247Y-102627180D01*
X108653009Y-102674800D01*
X108605390Y-102722419D01*
X108557771Y-102817657D01*
X108557771Y-102960514D01*
X108605390Y-103055752D01*
X108653009Y-103103371D01*
X108748247Y-103150990D01*
X109129200Y-103150990D01*
X108176819Y-103341466D02*
X107700628Y-103341466D01*
X108272057Y-103627180D02*
X107938723Y-102627180D01*
X107605390Y-103627180D01*
X107510152Y-103722419D02*
X106748247Y-103722419D01*
X106033961Y-103627180D02*
X106510152Y-103627180D01*
X106510152Y-102627180D01*
X105700628Y-103627180D02*
X105700628Y-102627180D01*
X105462533Y-102627180D01*
X105319676Y-102674800D01*
X105224438Y-102770038D01*
X105176819Y-102865276D01*
X105129200Y-103055752D01*
X105129200Y-103198609D01*
X105176819Y-103389085D01*
X105224438Y-103484323D01*
X105319676Y-103579561D01*
X105462533Y-103627180D01*
X105700628Y-103627180D01*
X104510152Y-102627180D02*
X104319676Y-102627180D01*
X104224438Y-102674800D01*
X104129200Y-102770038D01*
X104081580Y-102960514D01*
X104081580Y-103293847D01*
X104129200Y-103484323D01*
X104224438Y-103579561D01*
X104319676Y-103627180D01*
X104510152Y-103627180D01*
X104605390Y-103579561D01*
X104700628Y-103484323D01*
X104748247Y-103293847D01*
X104748247Y-102960514D01*
X104700628Y-102770038D01*
X104605390Y-102674800D01*
X104510152Y-102627180D01*
X156773571Y-108441904D02*
X156773571Y-107680000D01*
X156392619Y-108060952D02*
X157154523Y-108060952D01*
X157392619Y-107299047D02*
X157392619Y-106680000D01*
X157011666Y-107013333D01*
X157011666Y-106870476D01*
X156964047Y-106775238D01*
X156916428Y-106727619D01*
X156821190Y-106680000D01*
X156583095Y-106680000D01*
X156487857Y-106727619D01*
X156440238Y-106775238D01*
X156392619Y-106870476D01*
X156392619Y-107156190D01*
X156440238Y-107251428D01*
X156487857Y-107299047D01*
X157392619Y-106394285D02*
X156392619Y-106060952D01*
X157392619Y-105727619D01*
X157392619Y-105489523D02*
X157392619Y-104870476D01*
X157011666Y-105203809D01*
X157011666Y-105060952D01*
X156964047Y-104965714D01*
X156916428Y-104918095D01*
X156821190Y-104870476D01*
X156583095Y-104870476D01*
X156487857Y-104918095D01*
X156440238Y-104965714D01*
X156392619Y-105060952D01*
X156392619Y-105346666D01*
X156440238Y-105441904D01*
X156487857Y-105489523D01*
X164060238Y-98305666D02*
X164012619Y-98162809D01*
X164012619Y-97924714D01*
X164060238Y-97829476D01*
X164107857Y-97781857D01*
X164203095Y-97734238D01*
X164298333Y-97734238D01*
X164393571Y-97781857D01*
X164441190Y-97829476D01*
X164488809Y-97924714D01*
X164536428Y-98115190D01*
X164584047Y-98210428D01*
X164631666Y-98258047D01*
X164726904Y-98305666D01*
X164822142Y-98305666D01*
X164917380Y-98258047D01*
X164965000Y-98210428D01*
X165012619Y-98115190D01*
X165012619Y-97877095D01*
X164965000Y-97734238D01*
X164012619Y-97305666D02*
X165012619Y-97305666D01*
X164012619Y-96734238D01*
X165012619Y-96734238D01*
X163917380Y-96496142D02*
X163917380Y-95734238D01*
X164536428Y-95496142D02*
X164536428Y-95162809D01*
X164012619Y-95019952D02*
X164012619Y-95496142D01*
X165012619Y-95496142D01*
X165012619Y-95019952D01*
X164012619Y-94591380D02*
X165012619Y-94591380D01*
X164012619Y-94019952D01*
X165012619Y-94019952D01*
X106611276Y-95956380D02*
X106611276Y-94956380D01*
X106230323Y-94956380D01*
X106135085Y-95004000D01*
X106087466Y-95051619D01*
X106039847Y-95146857D01*
X106039847Y-95289714D01*
X106087466Y-95384952D01*
X106135085Y-95432571D01*
X106230323Y-95480190D01*
X106611276Y-95480190D01*
X105658895Y-95670666D02*
X105182704Y-95670666D01*
X105754133Y-95956380D02*
X105420800Y-94956380D01*
X105087466Y-95956380D01*
X104992228Y-96051619D02*
X104230323Y-96051619D01*
X104135085Y-94956380D02*
X103801752Y-95956380D01*
X103468419Y-94956380D01*
X103135085Y-95956380D02*
X103135085Y-94956380D01*
X102896990Y-94956380D01*
X102754133Y-95004000D01*
X102658895Y-95099238D01*
X102611276Y-95194476D01*
X102563657Y-95384952D01*
X102563657Y-95527809D01*
X102611276Y-95718285D01*
X102658895Y-95813523D01*
X102754133Y-95908761D01*
X102896990Y-95956380D01*
X103135085Y-95956380D01*
X101563657Y-95956380D02*
X101896990Y-95480190D01*
X102135085Y-95956380D02*
X102135085Y-94956380D01*
X101754133Y-94956380D01*
X101658895Y-95004000D01*
X101611276Y-95051619D01*
X101563657Y-95146857D01*
X101563657Y-95289714D01*
X101611276Y-95384952D01*
X101658895Y-95432571D01*
X101754133Y-95480190D01*
X102135085Y-95480190D01*
X101182704Y-95670666D02*
X100706514Y-95670666D01*
X101277942Y-95956380D02*
X100944609Y-94956380D01*
X100611276Y-95956380D01*
X100277942Y-95956380D02*
X100277942Y-94956380D01*
X99801752Y-95956380D02*
X99801752Y-94956380D01*
X99230323Y-95956380D01*
X99230323Y-94956380D01*
X158956190Y-61412380D02*
X159289523Y-60936190D01*
X159527619Y-61412380D02*
X159527619Y-60412380D01*
X159146666Y-60412380D01*
X159051428Y-60460000D01*
X159003809Y-60507619D01*
X158956190Y-60602857D01*
X158956190Y-60745714D01*
X159003809Y-60840952D01*
X159051428Y-60888571D01*
X159146666Y-60936190D01*
X159527619Y-60936190D01*
X158194285Y-60888571D02*
X158527619Y-60888571D01*
X158527619Y-61412380D02*
X158527619Y-60412380D01*
X158051428Y-60412380D01*
X157908571Y-61507619D02*
X157146666Y-61507619D01*
X156337142Y-61412380D02*
X156670476Y-60936190D01*
X156908571Y-61412380D02*
X156908571Y-60412380D01*
X156527619Y-60412380D01*
X156432380Y-60460000D01*
X156384761Y-60507619D01*
X156337142Y-60602857D01*
X156337142Y-60745714D01*
X156384761Y-60840952D01*
X156432380Y-60888571D01*
X156527619Y-60936190D01*
X156908571Y-60936190D01*
X156003809Y-60412380D02*
X155337142Y-61412380D01*
X155337142Y-60412380D02*
X156003809Y-61412380D01*
X151693571Y-98408904D02*
X151693571Y-97647000D01*
X151312619Y-98027952D02*
X152074523Y-98027952D01*
X151312619Y-96647000D02*
X151312619Y-97218428D01*
X151312619Y-96932714D02*
X152312619Y-96932714D01*
X152169761Y-97027952D01*
X152074523Y-97123190D01*
X152026904Y-97218428D01*
X152217380Y-96266047D02*
X152265000Y-96218428D01*
X152312619Y-96123190D01*
X152312619Y-95885095D01*
X152265000Y-95789857D01*
X152217380Y-95742238D01*
X152122142Y-95694619D01*
X152026904Y-95694619D01*
X151884047Y-95742238D01*
X151312619Y-96313666D01*
X151312619Y-95694619D01*
X152312619Y-95408904D02*
X151312619Y-95075571D01*
X152312619Y-94742238D01*
X154805000Y-106933904D02*
X154852619Y-107029142D01*
X154852619Y-107172000D01*
X154805000Y-107314857D01*
X154709761Y-107410095D01*
X154614523Y-107457714D01*
X154424047Y-107505333D01*
X154281190Y-107505333D01*
X154090714Y-107457714D01*
X153995476Y-107410095D01*
X153900238Y-107314857D01*
X153852619Y-107172000D01*
X153852619Y-107076761D01*
X153900238Y-106933904D01*
X153947857Y-106886285D01*
X154281190Y-106886285D01*
X154281190Y-107076761D01*
X153852619Y-106457714D02*
X154852619Y-106457714D01*
X153852619Y-105886285D01*
X154852619Y-105886285D01*
X153852619Y-105410095D02*
X154852619Y-105410095D01*
X154852619Y-105172000D01*
X154805000Y-105029142D01*
X154709761Y-104933904D01*
X154614523Y-104886285D01*
X154424047Y-104838666D01*
X154281190Y-104838666D01*
X154090714Y-104886285D01*
X153995476Y-104933904D01*
X153900238Y-105029142D01*
X153852619Y-105172000D01*
X153852619Y-105410095D01*
X174172619Y-107997428D02*
X175172619Y-107997428D01*
X174458333Y-107664095D01*
X175172619Y-107330761D01*
X174172619Y-107330761D01*
X174172619Y-106854571D02*
X175172619Y-106854571D01*
X174220238Y-106426000D02*
X174172619Y-106283142D01*
X174172619Y-106045047D01*
X174220238Y-105949809D01*
X174267857Y-105902190D01*
X174363095Y-105854571D01*
X174458333Y-105854571D01*
X174553571Y-105902190D01*
X174601190Y-105949809D01*
X174648809Y-106045047D01*
X174696428Y-106235523D01*
X174744047Y-106330761D01*
X174791666Y-106378380D01*
X174886904Y-106426000D01*
X174982142Y-106426000D01*
X175077380Y-106378380D01*
X175125000Y-106330761D01*
X175172619Y-106235523D01*
X175172619Y-105997428D01*
X175125000Y-105854571D01*
X175172619Y-105235523D02*
X175172619Y-105045047D01*
X175125000Y-104949809D01*
X175029761Y-104854571D01*
X174839285Y-104806952D01*
X174505952Y-104806952D01*
X174315476Y-104854571D01*
X174220238Y-104949809D01*
X174172619Y-105045047D01*
X174172619Y-105235523D01*
X174220238Y-105330761D01*
X174315476Y-105426000D01*
X174505952Y-105473619D01*
X174839285Y-105473619D01*
X175029761Y-105426000D01*
X175125000Y-105330761D01*
X175172619Y-105235523D01*
X167552619Y-98377047D02*
X166743095Y-98377047D01*
X166647857Y-98329428D01*
X166600238Y-98281809D01*
X166552619Y-98186571D01*
X166552619Y-97996095D01*
X166600238Y-97900857D01*
X166647857Y-97853238D01*
X166743095Y-97805619D01*
X167552619Y-97805619D01*
X166647857Y-96758000D02*
X166600238Y-96805619D01*
X166552619Y-96948476D01*
X166552619Y-97043714D01*
X166600238Y-97186571D01*
X166695476Y-97281809D01*
X166790714Y-97329428D01*
X166981190Y-97377047D01*
X167124047Y-97377047D01*
X167314523Y-97329428D01*
X167409761Y-97281809D01*
X167505000Y-97186571D01*
X167552619Y-97043714D01*
X167552619Y-96948476D01*
X167505000Y-96805619D01*
X167457380Y-96758000D01*
X166457380Y-96567523D02*
X166457380Y-95805619D01*
X166600238Y-95615142D02*
X166552619Y-95472285D01*
X166552619Y-95234190D01*
X166600238Y-95138952D01*
X166647857Y-95091333D01*
X166743095Y-95043714D01*
X166838333Y-95043714D01*
X166933571Y-95091333D01*
X166981190Y-95138952D01*
X167028809Y-95234190D01*
X167076428Y-95424666D01*
X167124047Y-95519904D01*
X167171666Y-95567523D01*
X167266904Y-95615142D01*
X167362142Y-95615142D01*
X167457380Y-95567523D01*
X167505000Y-95519904D01*
X167552619Y-95424666D01*
X167552619Y-95186571D01*
X167505000Y-95043714D01*
X167076428Y-94615142D02*
X167076428Y-94281809D01*
X166552619Y-94138952D02*
X166552619Y-94615142D01*
X167552619Y-94615142D01*
X167552619Y-94138952D01*
X166552619Y-93710380D02*
X167552619Y-93710380D01*
X166552619Y-93138952D01*
X167552619Y-93138952D01*
X116088800Y-121254780D02*
X116660228Y-121254780D01*
X116374514Y-121254780D02*
X116374514Y-120254780D01*
X116469752Y-120397638D01*
X116564990Y-120492876D01*
X116660228Y-120540495D01*
X115707847Y-120350019D02*
X115660228Y-120302400D01*
X115564990Y-120254780D01*
X115326895Y-120254780D01*
X115231657Y-120302400D01*
X115184038Y-120350019D01*
X115136419Y-120445257D01*
X115136419Y-120540495D01*
X115184038Y-120683352D01*
X115755466Y-121254780D01*
X115136419Y-121254780D01*
X114850704Y-120254780D02*
X114517371Y-121254780D01*
X114184038Y-120254780D01*
X114088800Y-121350019D02*
X113326895Y-121350019D01*
X112755466Y-120730971D02*
X113088800Y-120730971D01*
X113088800Y-121254780D02*
X113088800Y-120254780D01*
X112612609Y-120254780D01*
X112231657Y-121254780D02*
X112231657Y-120254780D01*
X111898323Y-120969066D01*
X111564990Y-120254780D01*
X111564990Y-121254780D01*
X110517371Y-121159542D02*
X110564990Y-121207161D01*
X110707847Y-121254780D01*
X110803085Y-121254780D01*
X110945942Y-121207161D01*
X111041180Y-121111923D01*
X111088800Y-121016685D01*
X111136419Y-120826209D01*
X111136419Y-120683352D01*
X111088800Y-120492876D01*
X111041180Y-120397638D01*
X110945942Y-120302400D01*
X110803085Y-120254780D01*
X110707847Y-120254780D01*
X110564990Y-120302400D01*
X110517371Y-120350019D01*
X164012619Y-109315000D02*
X164012619Y-109791190D01*
X165012619Y-109791190D01*
X164012619Y-108981666D02*
X165012619Y-108981666D01*
X164012619Y-108410238D01*
X165012619Y-108410238D01*
X164298333Y-107981666D02*
X164298333Y-107505476D01*
X164012619Y-108076904D02*
X165012619Y-107743571D01*
X164012619Y-107410238D01*
X163917380Y-107315000D02*
X163917380Y-106553095D01*
X164536428Y-106315000D02*
X164536428Y-105981666D01*
X164012619Y-105838809D02*
X164012619Y-106315000D01*
X165012619Y-106315000D01*
X165012619Y-105838809D01*
X164012619Y-105410238D02*
X165012619Y-105410238D01*
X164012619Y-104838809D01*
X165012619Y-104838809D01*
X171680238Y-98337476D02*
X171632619Y-98194619D01*
X171632619Y-97956523D01*
X171680238Y-97861285D01*
X171727857Y-97813666D01*
X171823095Y-97766047D01*
X171918333Y-97766047D01*
X172013571Y-97813666D01*
X172061190Y-97861285D01*
X172108809Y-97956523D01*
X172156428Y-98147000D01*
X172204047Y-98242238D01*
X172251666Y-98289857D01*
X172346904Y-98337476D01*
X172442142Y-98337476D01*
X172537380Y-98289857D01*
X172585000Y-98242238D01*
X172632619Y-98147000D01*
X172632619Y-97908904D01*
X172585000Y-97766047D01*
X171727857Y-96766047D02*
X171680238Y-96813666D01*
X171632619Y-96956523D01*
X171632619Y-97051761D01*
X171680238Y-97194619D01*
X171775476Y-97289857D01*
X171870714Y-97337476D01*
X172061190Y-97385095D01*
X172204047Y-97385095D01*
X172394523Y-97337476D01*
X172489761Y-97289857D01*
X172585000Y-97194619D01*
X172632619Y-97051761D01*
X172632619Y-96956523D01*
X172585000Y-96813666D01*
X172537380Y-96766047D01*
X171632619Y-95861285D02*
X171632619Y-96337476D01*
X172632619Y-96337476D01*
X171632619Y-95527952D02*
X172632619Y-95527952D01*
X171632619Y-94956523D02*
X172204047Y-95385095D01*
X172632619Y-94956523D02*
X172061190Y-95527952D01*
X113117142Y-61412380D02*
X113450476Y-60936190D01*
X113688571Y-61412380D02*
X113688571Y-60412380D01*
X113307619Y-60412380D01*
X113212380Y-60460000D01*
X113164761Y-60507619D01*
X113117142Y-60602857D01*
X113117142Y-60745714D01*
X113164761Y-60840952D01*
X113212380Y-60888571D01*
X113307619Y-60936190D01*
X113688571Y-60936190D01*
X112355238Y-60888571D02*
X112688571Y-60888571D01*
X112688571Y-61412380D02*
X112688571Y-60412380D01*
X112212380Y-60412380D01*
X112069523Y-61507619D02*
X111307619Y-61507619D01*
X111212380Y-60412380D02*
X110640952Y-60412380D01*
X110926666Y-61412380D02*
X110926666Y-60412380D01*
X110402857Y-60412380D02*
X109736190Y-61412380D01*
X109736190Y-60412380D02*
X110402857Y-61412380D01*
X152156800Y-121762780D02*
X152728228Y-121762780D01*
X152442514Y-121762780D02*
X152442514Y-120762780D01*
X152537752Y-120905638D01*
X152632990Y-121000876D01*
X152728228Y-121048495D01*
X151871085Y-120762780D02*
X151537752Y-121762780D01*
X151204419Y-120762780D01*
X150728228Y-121191352D02*
X150823466Y-121143733D01*
X150871085Y-121096114D01*
X150918704Y-121000876D01*
X150918704Y-120953257D01*
X150871085Y-120858019D01*
X150823466Y-120810400D01*
X150728228Y-120762780D01*
X150537752Y-120762780D01*
X150442514Y-120810400D01*
X150394895Y-120858019D01*
X150347276Y-120953257D01*
X150347276Y-121000876D01*
X150394895Y-121096114D01*
X150442514Y-121143733D01*
X150537752Y-121191352D01*
X150728228Y-121191352D01*
X150823466Y-121238971D01*
X150871085Y-121286590D01*
X150918704Y-121381828D01*
X150918704Y-121572304D01*
X150871085Y-121667542D01*
X150823466Y-121715161D01*
X150728228Y-121762780D01*
X150537752Y-121762780D01*
X150442514Y-121715161D01*
X150394895Y-121667542D01*
X150347276Y-121572304D01*
X150347276Y-121381828D01*
X150394895Y-121286590D01*
X150442514Y-121238971D01*
X150537752Y-121191352D01*
X150156800Y-121858019D02*
X149394895Y-121858019D01*
X148823466Y-121238971D02*
X149156800Y-121238971D01*
X149156800Y-121762780D02*
X149156800Y-120762780D01*
X148680609Y-120762780D01*
X148299657Y-121762780D02*
X148299657Y-120762780D01*
X147966323Y-121477066D01*
X147632990Y-120762780D01*
X147632990Y-121762780D01*
X146585371Y-121667542D02*
X146632990Y-121715161D01*
X146775847Y-121762780D01*
X146871085Y-121762780D01*
X147013942Y-121715161D01*
X147109180Y-121619923D01*
X147156799Y-121524685D01*
X147204419Y-121334209D01*
X147204419Y-121191352D01*
X147156799Y-121000876D01*
X147109180Y-120905638D01*
X147013942Y-120810400D01*
X146871085Y-120762780D01*
X146775847Y-120762780D01*
X146632990Y-120810400D01*
X146585371Y-120858019D01*
X171632619Y-110037238D02*
X172632619Y-110037238D01*
X172632619Y-109799142D01*
X172585000Y-109656285D01*
X172489761Y-109561047D01*
X172394523Y-109513428D01*
X172204047Y-109465809D01*
X172061190Y-109465809D01*
X171870714Y-109513428D01*
X171775476Y-109561047D01*
X171680238Y-109656285D01*
X171632619Y-109799142D01*
X171632619Y-110037238D01*
X171727857Y-108465809D02*
X171680238Y-108513428D01*
X171632619Y-108656285D01*
X171632619Y-108751523D01*
X171680238Y-108894380D01*
X171775476Y-108989619D01*
X171870714Y-109037238D01*
X172061190Y-109084857D01*
X172204047Y-109084857D01*
X172394523Y-109037238D01*
X172489761Y-108989619D01*
X172585000Y-108894380D01*
X172632619Y-108751523D01*
X172632619Y-108656285D01*
X172585000Y-108513428D01*
X172537380Y-108465809D01*
X171537380Y-108275333D02*
X171537380Y-107513428D01*
X171680238Y-107322952D02*
X171632619Y-107180095D01*
X171632619Y-106942000D01*
X171680238Y-106846761D01*
X171727857Y-106799142D01*
X171823095Y-106751523D01*
X171918333Y-106751523D01*
X172013571Y-106799142D01*
X172061190Y-106846761D01*
X172108809Y-106942000D01*
X172156428Y-107132476D01*
X172204047Y-107227714D01*
X172251666Y-107275333D01*
X172346904Y-107322952D01*
X172442142Y-107322952D01*
X172537380Y-107275333D01*
X172585000Y-107227714D01*
X172632619Y-107132476D01*
X172632619Y-106894380D01*
X172585000Y-106751523D01*
X172156428Y-106322952D02*
X172156428Y-105989619D01*
X171632619Y-105846761D02*
X171632619Y-106322952D01*
X172632619Y-106322952D01*
X172632619Y-105846761D01*
X171632619Y-105418190D02*
X172632619Y-105418190D01*
X171632619Y-104846761D01*
X172632619Y-104846761D01*
X152775847Y-124826780D02*
X152156800Y-124826780D01*
X152490133Y-125207733D01*
X152347276Y-125207733D01*
X152252038Y-125255352D01*
X152204419Y-125302971D01*
X152156800Y-125398209D01*
X152156800Y-125636304D01*
X152204419Y-125731542D01*
X152252038Y-125779161D01*
X152347276Y-125826780D01*
X152632990Y-125826780D01*
X152728228Y-125779161D01*
X152775847Y-125731542D01*
X151871085Y-124826780D02*
X151537752Y-125826780D01*
X151204419Y-124826780D01*
X150966323Y-124826780D02*
X150347276Y-124826780D01*
X150680609Y-125207733D01*
X150537752Y-125207733D01*
X150442514Y-125255352D01*
X150394895Y-125302971D01*
X150347276Y-125398209D01*
X150347276Y-125636304D01*
X150394895Y-125731542D01*
X150442514Y-125779161D01*
X150537752Y-125826780D01*
X150823466Y-125826780D01*
X150918704Y-125779161D01*
X150966323Y-125731542D01*
X150156800Y-125922019D02*
X149394895Y-125922019D01*
X148823466Y-125302971D02*
X149156800Y-125302971D01*
X149156800Y-125826780D02*
X149156800Y-124826780D01*
X148680609Y-124826780D01*
X148299657Y-125826780D02*
X148299657Y-124826780D01*
X147966323Y-125541066D01*
X147632990Y-124826780D01*
X147632990Y-125826780D01*
X146585371Y-125731542D02*
X146632990Y-125779161D01*
X146775847Y-125826780D01*
X146871085Y-125826780D01*
X147013942Y-125779161D01*
X147109180Y-125683923D01*
X147156799Y-125588685D01*
X147204419Y-125398209D01*
X147204419Y-125255352D01*
X147156799Y-125064876D01*
X147109180Y-124969638D01*
X147013942Y-124874400D01*
X146871085Y-124826780D01*
X146775847Y-124826780D01*
X146632990Y-124874400D01*
X146585371Y-124922019D01*
X103369904Y-105116380D02*
X102798476Y-105116380D01*
X103084190Y-106116380D02*
X103084190Y-105116380D01*
X102465142Y-106116380D02*
X102465142Y-105116380D01*
X102084190Y-105116380D01*
X101988952Y-105164000D01*
X101941333Y-105211619D01*
X101893714Y-105306857D01*
X101893714Y-105449714D01*
X101941333Y-105544952D01*
X101988952Y-105592571D01*
X102084190Y-105640190D01*
X102465142Y-105640190D01*
X101036571Y-105449714D02*
X101036571Y-106116380D01*
X101274666Y-105068761D02*
X101512761Y-105783047D01*
X100893714Y-105783047D01*
X156709904Y-127265180D02*
X156138476Y-127265180D01*
X156424190Y-128265180D02*
X156424190Y-127265180D01*
X155805142Y-128265180D02*
X155805142Y-127265180D01*
X155424190Y-127265180D01*
X155328952Y-127312800D01*
X155281333Y-127360419D01*
X155233714Y-127455657D01*
X155233714Y-127598514D01*
X155281333Y-127693752D01*
X155328952Y-127741371D01*
X155424190Y-127788990D01*
X155805142Y-127788990D01*
X154852761Y-127360419D02*
X154805142Y-127312800D01*
X154709904Y-127265180D01*
X154471809Y-127265180D01*
X154376571Y-127312800D01*
X154328952Y-127360419D01*
X154281333Y-127455657D01*
X154281333Y-127550895D01*
X154328952Y-127693752D01*
X154900380Y-128265180D01*
X154281333Y-128265180D01*
X149558333Y-102957380D02*
X149558333Y-103671666D01*
X149605952Y-103814523D01*
X149701190Y-103909761D01*
X149844047Y-103957380D01*
X149939285Y-103957380D01*
X148939285Y-103385952D02*
X149034523Y-103338333D01*
X149082142Y-103290714D01*
X149129761Y-103195476D01*
X149129761Y-103147857D01*
X149082142Y-103052619D01*
X149034523Y-103005000D01*
X148939285Y-102957380D01*
X148748809Y-102957380D01*
X148653571Y-103005000D01*
X148605952Y-103052619D01*
X148558333Y-103147857D01*
X148558333Y-103195476D01*
X148605952Y-103290714D01*
X148653571Y-103338333D01*
X148748809Y-103385952D01*
X148939285Y-103385952D01*
X149034523Y-103433571D01*
X149082142Y-103481190D01*
X149129761Y-103576428D01*
X149129761Y-103766904D01*
X149082142Y-103862142D01*
X149034523Y-103909761D01*
X148939285Y-103957380D01*
X148748809Y-103957380D01*
X148653571Y-103909761D01*
X148605952Y-103862142D01*
X148558333Y-103766904D01*
X148558333Y-103576428D01*
X148605952Y-103481190D01*
X148653571Y-103433571D01*
X148748809Y-103385952D01*
X114901504Y-125243980D02*
X114330076Y-125243980D01*
X114615790Y-126243980D02*
X114615790Y-125243980D01*
X113996742Y-126243980D02*
X113996742Y-125243980D01*
X113615790Y-125243980D01*
X113520552Y-125291600D01*
X113472933Y-125339219D01*
X113425314Y-125434457D01*
X113425314Y-125577314D01*
X113472933Y-125672552D01*
X113520552Y-125720171D01*
X113615790Y-125767790D01*
X113996742Y-125767790D01*
X113091980Y-125243980D02*
X112472933Y-125243980D01*
X112806266Y-125624933D01*
X112663409Y-125624933D01*
X112568171Y-125672552D01*
X112520552Y-125720171D01*
X112472933Y-125815409D01*
X112472933Y-126053504D01*
X112520552Y-126148742D01*
X112568171Y-126196361D01*
X112663409Y-126243980D01*
X112949123Y-126243980D01*
X113044361Y-126196361D01*
X113091980Y-126148742D01*
X127671295Y-109597580D02*
X127099866Y-109597580D01*
X127385580Y-110597580D02*
X127385580Y-109597580D01*
X126766533Y-110597580D02*
X126766533Y-109597580D01*
X126385580Y-109597580D01*
X126290342Y-109645200D01*
X126242723Y-109692819D01*
X126195104Y-109788057D01*
X126195104Y-109930914D01*
X126242723Y-110026152D01*
X126290342Y-110073771D01*
X126385580Y-110121390D01*
X126766533Y-110121390D01*
X125242723Y-110597580D02*
X125814152Y-110597580D01*
X125528438Y-110597580D02*
X125528438Y-109597580D01*
X125623676Y-109740438D01*
X125718914Y-109835676D01*
X125814152Y-109883295D01*
X124623676Y-109597580D02*
X124528438Y-109597580D01*
X124433200Y-109645200D01*
X124385580Y-109692819D01*
X124337961Y-109788057D01*
X124290342Y-109978533D01*
X124290342Y-110216628D01*
X124337961Y-110407104D01*
X124385580Y-110502342D01*
X124433200Y-110549961D01*
X124528438Y-110597580D01*
X124623676Y-110597580D01*
X124718914Y-110549961D01*
X124766533Y-110502342D01*
X124814152Y-110407104D01*
X124861771Y-110216628D01*
X124861771Y-109978533D01*
X124814152Y-109788057D01*
X124766533Y-109692819D01*
X124718914Y-109645200D01*
X124623676Y-109597580D01*
X159583333Y-117816380D02*
X159583333Y-118530666D01*
X159630952Y-118673523D01*
X159726190Y-118768761D01*
X159869047Y-118816380D01*
X159964285Y-118816380D01*
X159107142Y-118816380D02*
X159107142Y-117816380D01*
X158726190Y-117816380D01*
X158630952Y-117864000D01*
X158583333Y-117911619D01*
X158535714Y-118006857D01*
X158535714Y-118149714D01*
X158583333Y-118244952D01*
X158630952Y-118292571D01*
X158726190Y-118340190D01*
X159107142Y-118340190D01*
X157583333Y-118816380D02*
X158154761Y-118816380D01*
X157869047Y-118816380D02*
X157869047Y-117816380D01*
X157964285Y-117959238D01*
X158059523Y-118054476D01*
X158154761Y-118102095D01*
X120895904Y-109597580D02*
X120324476Y-109597580D01*
X120610190Y-110597580D02*
X120610190Y-109597580D01*
X119991142Y-110597580D02*
X119991142Y-109597580D01*
X119610190Y-109597580D01*
X119514952Y-109645200D01*
X119467333Y-109692819D01*
X119419714Y-109788057D01*
X119419714Y-109930914D01*
X119467333Y-110026152D01*
X119514952Y-110073771D01*
X119610190Y-110121390D01*
X119991142Y-110121390D01*
X118943523Y-110597580D02*
X118753047Y-110597580D01*
X118657809Y-110549961D01*
X118610190Y-110502342D01*
X118514952Y-110359485D01*
X118467333Y-110169009D01*
X118467333Y-109788057D01*
X118514952Y-109692819D01*
X118562571Y-109645200D01*
X118657809Y-109597580D01*
X118848285Y-109597580D01*
X118943523Y-109645200D01*
X118991142Y-109692819D01*
X119038761Y-109788057D01*
X119038761Y-110026152D01*
X118991142Y-110121390D01*
X118943523Y-110169009D01*
X118848285Y-110216628D01*
X118657809Y-110216628D01*
X118562571Y-110169009D01*
X118514952Y-110121390D01*
X118467333Y-110026152D01*
X156049504Y-118324380D02*
X155478076Y-118324380D01*
X155763790Y-119324380D02*
X155763790Y-118324380D01*
X155144742Y-119324380D02*
X155144742Y-118324380D01*
X154763790Y-118324380D01*
X154668552Y-118372000D01*
X154620933Y-118419619D01*
X154573314Y-118514857D01*
X154573314Y-118657714D01*
X154620933Y-118752952D01*
X154668552Y-118800571D01*
X154763790Y-118848190D01*
X155144742Y-118848190D01*
X153620933Y-119324380D02*
X154192361Y-119324380D01*
X153906647Y-119324380D02*
X153906647Y-118324380D01*
X154001885Y-118467238D01*
X154097123Y-118562476D01*
X154192361Y-118610095D01*
X90923904Y-93595580D02*
X90352476Y-93595580D01*
X90638190Y-94595580D02*
X90638190Y-93595580D01*
X90019142Y-94595580D02*
X90019142Y-93595580D01*
X89638190Y-93595580D01*
X89542952Y-93643200D01*
X89495333Y-93690819D01*
X89447714Y-93786057D01*
X89447714Y-93928914D01*
X89495333Y-94024152D01*
X89542952Y-94071771D01*
X89638190Y-94119390D01*
X90019142Y-94119390D01*
X88590571Y-93595580D02*
X88781047Y-93595580D01*
X88876285Y-93643200D01*
X88923904Y-93690819D01*
X89019142Y-93833676D01*
X89066761Y-94024152D01*
X89066761Y-94405104D01*
X89019142Y-94500342D01*
X88971523Y-94547961D01*
X88876285Y-94595580D01*
X88685809Y-94595580D01*
X88590571Y-94547961D01*
X88542952Y-94500342D01*
X88495333Y-94405104D01*
X88495333Y-94167009D01*
X88542952Y-94071771D01*
X88590571Y-94024152D01*
X88685809Y-93976533D01*
X88876285Y-93976533D01*
X88971523Y-94024152D01*
X89019142Y-94071771D01*
X89066761Y-94167009D01*
X120794304Y-90384380D02*
X120222876Y-90384380D01*
X120508590Y-91384380D02*
X120508590Y-90384380D01*
X119889542Y-91384380D02*
X119889542Y-90384380D01*
X119508590Y-90384380D01*
X119413352Y-90432000D01*
X119365733Y-90479619D01*
X119318114Y-90574857D01*
X119318114Y-90717714D01*
X119365733Y-90812952D01*
X119413352Y-90860571D01*
X119508590Y-90908190D01*
X119889542Y-90908190D01*
X118984780Y-90384380D02*
X118318114Y-90384380D01*
X118746685Y-91384380D01*
X110227904Y-90384380D02*
X109656476Y-90384380D01*
X109942190Y-91384380D02*
X109942190Y-90384380D01*
X109323142Y-91384380D02*
X109323142Y-90384380D01*
X108942190Y-90384380D01*
X108846952Y-90432000D01*
X108799333Y-90479619D01*
X108751714Y-90574857D01*
X108751714Y-90717714D01*
X108799333Y-90812952D01*
X108846952Y-90860571D01*
X108942190Y-90908190D01*
X109323142Y-90908190D01*
X108180285Y-90812952D02*
X108275523Y-90765333D01*
X108323142Y-90717714D01*
X108370761Y-90622476D01*
X108370761Y-90574857D01*
X108323142Y-90479619D01*
X108275523Y-90432000D01*
X108180285Y-90384380D01*
X107989809Y-90384380D01*
X107894571Y-90432000D01*
X107846952Y-90479619D01*
X107799333Y-90574857D01*
X107799333Y-90622476D01*
X107846952Y-90717714D01*
X107894571Y-90765333D01*
X107989809Y-90812952D01*
X108180285Y-90812952D01*
X108275523Y-90860571D01*
X108323142Y-90908190D01*
X108370761Y-91003428D01*
X108370761Y-91193904D01*
X108323142Y-91289142D01*
X108275523Y-91336761D01*
X108180285Y-91384380D01*
X107989809Y-91384380D01*
X107894571Y-91336761D01*
X107846952Y-91289142D01*
X107799333Y-91193904D01*
X107799333Y-91003428D01*
X107846952Y-90908190D01*
X107894571Y-90860571D01*
X107989809Y-90812952D01*
X159634133Y-133208780D02*
X159634133Y-133923066D01*
X159681752Y-134065923D01*
X159776990Y-134161161D01*
X159919847Y-134208780D01*
X160015085Y-134208780D01*
X159157942Y-134208780D02*
X159157942Y-133208780D01*
X158776990Y-133208780D01*
X158681752Y-133256400D01*
X158634133Y-133304019D01*
X158586514Y-133399257D01*
X158586514Y-133542114D01*
X158634133Y-133637352D01*
X158681752Y-133684971D01*
X158776990Y-133732590D01*
X159157942Y-133732590D01*
X158205561Y-133304019D02*
X158157942Y-133256400D01*
X158062704Y-133208780D01*
X157824609Y-133208780D01*
X157729371Y-133256400D01*
X157681752Y-133304019D01*
X157634133Y-133399257D01*
X157634133Y-133494495D01*
X157681752Y-133637352D01*
X158253180Y-134208780D01*
X157634133Y-134208780D01*
X104893904Y-93595580D02*
X104322476Y-93595580D01*
X104608190Y-94595580D02*
X104608190Y-93595580D01*
X103989142Y-94595580D02*
X103989142Y-93595580D01*
X103608190Y-93595580D01*
X103512952Y-93643200D01*
X103465333Y-93690819D01*
X103417714Y-93786057D01*
X103417714Y-93928914D01*
X103465333Y-94024152D01*
X103512952Y-94071771D01*
X103608190Y-94119390D01*
X103989142Y-94119390D01*
X102512952Y-93595580D02*
X102989142Y-93595580D01*
X103036761Y-94071771D01*
X102989142Y-94024152D01*
X102893904Y-93976533D01*
X102655809Y-93976533D01*
X102560571Y-94024152D01*
X102512952Y-94071771D01*
X102465333Y-94167009D01*
X102465333Y-94405104D01*
X102512952Y-94500342D01*
X102560571Y-94547961D01*
X102655809Y-94595580D01*
X102893904Y-94595580D01*
X102989142Y-94547961D01*
X103036761Y-94500342D01*
D12*
X103608000Y-103174800D02*
G75*
G03*
X103608000Y-103174800I-1500000J0D01*
G01*
X156236800Y-125323600D02*
G75*
G03*
X156236800Y-125323600I-1500000J0D01*
G01*
D13*
X175928500Y-99060000D02*
X150528500Y-99060000D01*
X175928500Y-104140000D02*
X175928500Y-99060000D01*
X175928500Y-104140000D02*
X150528500Y-104140000D01*
X150528500Y-99060000D02*
X150528500Y-104140000D01*
X149978500Y-100330000D02*
G75*
G03*
X149978500Y-100330000I-100000J0D01*
G01*
D12*
X115139600Y-123291600D02*
G75*
G03*
X115139600Y-123291600I-1500000J0D01*
G01*
X127433200Y-107645200D02*
G75*
G03*
X127433200Y-107645200I-1500000J0D01*
G01*
X158450000Y-122304000D02*
X159050000Y-122304000D01*
X159050000Y-119504000D02*
X158450000Y-119504000D01*
X159750000Y-121604000D02*
X159750000Y-120204000D01*
X157750000Y-120204000D02*
X157750000Y-121604000D01*
X159750000Y-120204000D02*
G75*
G03*
X159050000Y-119504000I-700000J0D01*
G01*
X159050000Y-122304000D02*
G75*
G03*
X159750000Y-121604000I1J699999D01*
G01*
X157750000Y-121604000D02*
G75*
G03*
X158450000Y-122304000I699999J-1D01*
G01*
X158450000Y-119504000D02*
G75*
G03*
X157750000Y-120204000I0J-700000D01*
G01*
G36*
X139852625Y-129667817D02*
G01*
X140561874Y-129671557D01*
X141133629Y-129678944D01*
X141585676Y-129690649D01*
X141935799Y-129707343D01*
X142201786Y-129729697D01*
X142401420Y-129758383D01*
X142552489Y-129794070D01*
X142690836Y-129838663D01*
X142920090Y-129936258D01*
X143131001Y-130069011D01*
X143336975Y-130253552D01*
X143551417Y-130506512D01*
X143787733Y-130844522D01*
X144059328Y-131284212D01*
X144379607Y-131842213D01*
X144761976Y-132535156D01*
X145047535Y-133053523D01*
X145314021Y-133527459D01*
X145545755Y-133929638D01*
X145731404Y-134240697D01*
X145859636Y-134441278D01*
X145919118Y-134512019D01*
X145926250Y-134508380D01*
X146003275Y-134406918D01*
X146143103Y-134182814D01*
X146332588Y-133858456D01*
X146558582Y-133456232D01*
X146807936Y-132998529D01*
X147075120Y-132501681D01*
X147351400Y-131989312D01*
X147608055Y-131514650D01*
X147824977Y-131114883D01*
X147982055Y-130827199D01*
X148344733Y-130167064D01*
X147204189Y-130217334D01*
X146605735Y-131332304D01*
X146503928Y-131521417D01*
X146302118Y-131892762D01*
X146134422Y-132196613D01*
X146016000Y-132405648D01*
X145962011Y-132492545D01*
X145934898Y-132472449D01*
X145835613Y-132333913D01*
X145679461Y-132085938D01*
X145481172Y-131752208D01*
X145255475Y-131356408D01*
X144594209Y-130175000D01*
X144200271Y-130171559D01*
X144035653Y-130163513D01*
X143767068Y-130092427D01*
X143513198Y-129917559D01*
X143220063Y-129667000D01*
X144857198Y-129667000D01*
X145211581Y-130280833D01*
X145241060Y-130331883D01*
X145436644Y-130670095D01*
X145620247Y-130986880D01*
X145755574Y-131219602D01*
X145945183Y-131544537D01*
X146442091Y-130605839D01*
X146939000Y-129667141D01*
X148052543Y-129667070D01*
X149166087Y-129667000D01*
X147549227Y-132670295D01*
X147413686Y-132921698D01*
X147069869Y-133556044D01*
X146753982Y-134134107D01*
X146474671Y-134640376D01*
X146240577Y-135059337D01*
X146060344Y-135375479D01*
X145942616Y-135573290D01*
X145896035Y-135637258D01*
X145874489Y-135602353D01*
X145780595Y-135436667D01*
X145621962Y-135151169D01*
X145408372Y-134763629D01*
X145149611Y-134291819D01*
X144855461Y-133753508D01*
X144535706Y-133166468D01*
X144308991Y-132750366D01*
X143979711Y-132150804D01*
X143713119Y-131674510D01*
X143498782Y-131304864D01*
X143326266Y-131025246D01*
X143185137Y-130819038D01*
X143064960Y-130669619D01*
X142955301Y-130560370D01*
X142845726Y-130474672D01*
X142479743Y-130217334D01*
X137057421Y-130168184D01*
X137315776Y-130616092D01*
X137574130Y-131064000D01*
X138697505Y-131106334D01*
X139820880Y-131148667D01*
X140882273Y-133156974D01*
X141943667Y-135165280D01*
X142472833Y-135167807D01*
X142723932Y-135160587D01*
X142924933Y-135136307D01*
X143002000Y-135100493D01*
X142979231Y-135040602D01*
X142887510Y-134850497D01*
X142737832Y-134557593D01*
X142543486Y-134187792D01*
X142317762Y-133766993D01*
X142193021Y-133536629D01*
X141924278Y-133040380D01*
X141661846Y-132555842D01*
X141430495Y-132128749D01*
X141254995Y-131804834D01*
X140876465Y-131106334D01*
X142997652Y-131106334D01*
X143127354Y-131357149D01*
X143257055Y-131607965D01*
X142496869Y-131632316D01*
X141736682Y-131656667D01*
X142791146Y-133604000D01*
X143053782Y-134090941D01*
X143310624Y-134571268D01*
X143529040Y-134984119D01*
X143698371Y-135309195D01*
X143807957Y-135526200D01*
X143847138Y-135614834D01*
X143845000Y-135618915D01*
X143741544Y-135642139D01*
X143505506Y-135661015D01*
X143168461Y-135673696D01*
X142761987Y-135678334D01*
X141675308Y-135678334D01*
X139479018Y-131572000D01*
X137236816Y-131487334D01*
X136243752Y-129667000D01*
X139184176Y-129667000D01*
X139852625Y-129667817D01*
G37*
G36*
X125380333Y-129849722D02*
G01*
X126037626Y-129970300D01*
X126591552Y-130223655D01*
X127045861Y-130611862D01*
X127404299Y-131136995D01*
X127460657Y-131247994D01*
X127550787Y-131464910D01*
X127603029Y-131689357D01*
X127627358Y-131975208D01*
X127633747Y-132376334D01*
X127633764Y-132390858D01*
X127626395Y-132805448D01*
X127597981Y-133104814D01*
X127540255Y-133341062D01*
X127444952Y-133566299D01*
X127277875Y-133854126D01*
X126864076Y-134331301D01*
X126351180Y-134696063D01*
X125772333Y-134921556D01*
X125509574Y-134969910D01*
X124950564Y-134983923D01*
X124399853Y-134893068D01*
X123905444Y-134707630D01*
X123515336Y-134437896D01*
X123387539Y-134309617D01*
X123293311Y-134167837D01*
X123325916Y-134058787D01*
X123482394Y-133937463D01*
X123589986Y-133874036D01*
X123699141Y-133857391D01*
X123831356Y-133922232D01*
X124039832Y-134082391D01*
X124237063Y-134227745D01*
X124428321Y-134319922D01*
X124663369Y-134368743D01*
X125004966Y-134394505D01*
X125347259Y-134397804D01*
X125751010Y-134337248D01*
X126094739Y-134181756D01*
X126436254Y-133911834D01*
X126574945Y-133772272D01*
X126842600Y-133386926D01*
X126992000Y-132934587D01*
X127038409Y-132376334D01*
X127038322Y-132338629D01*
X127020303Y-131945430D01*
X126962688Y-131651043D01*
X126853584Y-131392150D01*
X126804425Y-131304862D01*
X126467011Y-130887014D01*
X126040414Y-130582982D01*
X125556182Y-130400967D01*
X125045863Y-130349176D01*
X124541004Y-130435812D01*
X124073152Y-130669079D01*
X123916862Y-130776412D01*
X123735454Y-130892077D01*
X123645379Y-130937000D01*
X123645159Y-130936999D01*
X123551187Y-130889448D01*
X123392961Y-130775945D01*
X123188213Y-130614890D01*
X123464273Y-130381854D01*
X123610902Y-130265175D01*
X124031408Y-130016969D01*
X124496118Y-129880747D01*
X125058751Y-129838193D01*
X125380333Y-129849722D01*
G37*
G36*
X122929885Y-132580510D02*
G01*
X122882075Y-133059458D01*
X122794074Y-133440032D01*
X122771986Y-133500023D01*
X122538904Y-133915995D01*
X122195427Y-134312606D01*
X121789650Y-134642034D01*
X121369667Y-134856453D01*
X121143633Y-134917410D01*
X120649198Y-134976382D01*
X120118231Y-134965691D01*
X119615702Y-134888583D01*
X119206581Y-134748308D01*
X119010015Y-134635662D01*
X118750210Y-134454239D01*
X118515220Y-134260553D01*
X118344957Y-134088093D01*
X118279333Y-133970343D01*
X118339042Y-133885126D01*
X118488922Y-133766909D01*
X118606666Y-133698694D01*
X118713141Y-133688688D01*
X118844502Y-133761422D01*
X119051574Y-133931790D01*
X119354087Y-134158226D01*
X119699984Y-134319920D01*
X120097770Y-134393495D01*
X120601431Y-134395090D01*
X120834729Y-134379667D01*
X121115839Y-134337486D01*
X121326808Y-134258662D01*
X121529033Y-134125343D01*
X121859625Y-133814446D01*
X122154275Y-133374583D01*
X122308114Y-132905500D01*
X122364976Y-132545667D01*
X118087247Y-132545667D01*
X118128271Y-131974167D01*
X118130046Y-131953000D01*
X118699441Y-131953000D01*
X122361691Y-131953000D01*
X122305025Y-131720167D01*
X122289765Y-131664437D01*
X122111666Y-131285158D01*
X121829693Y-130918228D01*
X121490848Y-130626766D01*
X121329063Y-130535907D01*
X120877720Y-130391167D01*
X120388003Y-130352202D01*
X119932560Y-130428265D01*
X119697046Y-130527797D01*
X119276904Y-130830432D01*
X118951581Y-131240395D01*
X118755269Y-131720167D01*
X118699441Y-131953000D01*
X118130046Y-131953000D01*
X118134143Y-131904154D01*
X118267817Y-131282957D01*
X118534698Y-130745498D01*
X118922880Y-130310016D01*
X119420455Y-129994751D01*
X119459019Y-129978592D01*
X119782797Y-129896928D01*
X120199866Y-129851629D01*
X120647669Y-129844163D01*
X121063649Y-129876000D01*
X121385250Y-129948608D01*
X121854471Y-130183937D01*
X122319128Y-130586298D01*
X122670453Y-131109973D01*
X122672561Y-131114194D01*
X122811015Y-131414626D01*
X122890762Y-131670344D01*
X122927268Y-131952550D01*
X122927278Y-131953000D01*
X122936000Y-132332441D01*
X122929885Y-132580510D01*
G37*
G36*
X133211787Y-132734689D02*
G01*
X133180489Y-133034899D01*
X133111782Y-133288936D01*
X132993364Y-133561667D01*
X132886030Y-133773384D01*
X132752490Y-134012987D01*
X132656531Y-134157778D01*
X132579818Y-134239867D01*
X132272240Y-134493741D01*
X131904358Y-134724492D01*
X131553222Y-134881574D01*
X131428316Y-134916003D01*
X130964096Y-134974837D01*
X130438466Y-134963864D01*
X129919653Y-134887412D01*
X129475884Y-134749808D01*
X129309990Y-134666807D01*
X129004154Y-134467477D01*
X128769616Y-134258850D01*
X128508465Y-133961415D01*
X128982449Y-133583473D01*
X129134534Y-133776818D01*
X129383362Y-134003689D01*
X129773306Y-134213898D01*
X130228243Y-134356076D01*
X130694112Y-134408334D01*
X130939444Y-134399887D01*
X131246106Y-134367252D01*
X131460655Y-134318474D01*
X131737931Y-134166056D01*
X132057469Y-133880109D01*
X132328934Y-133526338D01*
X132517415Y-133151671D01*
X132588000Y-132803040D01*
X132588000Y-132545667D01*
X128330180Y-132545667D01*
X128380889Y-132002639D01*
X128421802Y-131789179D01*
X129032000Y-131789179D01*
X129034102Y-131823027D01*
X129056253Y-131869265D01*
X129120145Y-131903015D01*
X129247043Y-131926234D01*
X129458213Y-131940883D01*
X129774919Y-131948921D01*
X130218426Y-131952307D01*
X130810000Y-131953000D01*
X131138379Y-131953085D01*
X131677742Y-131951429D01*
X132074013Y-131942157D01*
X132344686Y-131919045D01*
X132507257Y-131875873D01*
X132579220Y-131806416D01*
X132578072Y-131704455D01*
X132521307Y-131563766D01*
X132426421Y-131378127D01*
X132190752Y-131017925D01*
X131787644Y-130651550D01*
X131300167Y-130423353D01*
X130749220Y-130346193D01*
X130524389Y-130362586D01*
X130066970Y-130489413D01*
X129659081Y-130720644D01*
X129330663Y-131031122D01*
X129111656Y-131395686D01*
X129032000Y-131789179D01*
X128421802Y-131789179D01*
X128495156Y-131406455D01*
X128745669Y-130844829D01*
X129122938Y-130391074D01*
X129129846Y-130384847D01*
X129473588Y-130118665D01*
X129825689Y-129950166D01*
X130237752Y-129861880D01*
X130761383Y-129836334D01*
X131044342Y-129840826D01*
X131361913Y-129869693D01*
X131621890Y-129936414D01*
X131890271Y-130053694D01*
X132150618Y-130200725D01*
X132618986Y-130592550D01*
X132952026Y-131084006D01*
X133151244Y-131677723D01*
X133163568Y-131806416D01*
X133218145Y-132376334D01*
X133211787Y-132734689D01*
G37*
X121134000Y-107645200D02*
G75*
G03*
X121134000Y-107645200I-1500000J0D01*
G01*
X156236800Y-121259600D02*
G75*
G03*
X156236800Y-121259600I-1500000J0D01*
G01*
X91162000Y-91643200D02*
G75*
G03*
X91162000Y-91643200I-1500000J0D01*
G01*
X121083200Y-88442800D02*
G75*
G03*
X121083200Y-88442800I-1500000J0D01*
G01*
X110466000Y-88442800D02*
G75*
G03*
X110466000Y-88442800I-1500000J0D01*
G01*
G36*
X138679568Y-137532100D02*
G01*
X139042969Y-137744335D01*
X139341132Y-138064536D01*
X139417915Y-138183591D01*
X139489336Y-138353436D01*
X139455662Y-138464138D01*
X139315375Y-138543956D01*
X139276605Y-138558347D01*
X139076993Y-138607758D01*
X138948577Y-138567846D01*
X138846411Y-138427444D01*
X138698868Y-138245543D01*
X138426057Y-138091190D01*
X138088722Y-138035612D01*
X137775037Y-138079664D01*
X137498839Y-138230070D01*
X137322425Y-138475237D01*
X137259302Y-138802675D01*
X137261592Y-138875683D01*
X137288103Y-139028147D01*
X137353130Y-139190696D01*
X137467707Y-139378298D01*
X137642870Y-139605922D01*
X137889653Y-139888537D01*
X138219091Y-140241111D01*
X138642219Y-140678613D01*
X138670186Y-140707252D01*
X138992109Y-141038675D01*
X139226870Y-141287179D01*
X139388187Y-141471234D01*
X139489777Y-141609311D01*
X139545358Y-141719879D01*
X139568647Y-141821410D01*
X139573362Y-141932372D01*
X139573362Y-142232763D01*
X136534046Y-142232763D01*
X136534046Y-141653846D01*
X137535090Y-141653846D01*
X137648753Y-141653547D01*
X138002427Y-141648549D01*
X138294444Y-141638342D01*
X138497115Y-141624158D01*
X138582752Y-141607229D01*
X138570356Y-141571863D01*
X138476878Y-141446091D01*
X138308289Y-141248263D01*
X138080282Y-140996581D01*
X137808551Y-140709246D01*
X137430574Y-140301734D01*
X137059148Y-139848852D01*
X136799494Y-139451069D01*
X136646258Y-139095153D01*
X136594087Y-138767874D01*
X136637627Y-138456000D01*
X136771523Y-138146299D01*
X136824190Y-138060505D01*
X137110842Y-137745729D01*
X137466568Y-137534646D01*
X137864506Y-137428110D01*
X138277793Y-137426977D01*
X138679568Y-137532100D01*
G37*
G36*
X134992589Y-137502581D02*
G01*
X135377940Y-137709382D01*
X135697606Y-138029857D01*
X135780243Y-138156040D01*
X135821976Y-138314420D01*
X135737296Y-138431574D01*
X135517187Y-138532630D01*
X135406869Y-138565437D01*
X135299788Y-138553535D01*
X135223460Y-138447789D01*
X135042345Y-138224190D01*
X134783315Y-138079714D01*
X134487388Y-138023815D01*
X134191429Y-138057696D01*
X133932305Y-138182559D01*
X133746882Y-138399609D01*
X133722567Y-138451108D01*
X133667188Y-138735313D01*
X133735980Y-138996306D01*
X133911542Y-139211139D01*
X134176477Y-139356866D01*
X134513387Y-139410541D01*
X134869658Y-139410541D01*
X134869658Y-139700000D01*
X134869018Y-139793429D01*
X134849194Y-139930299D01*
X134772004Y-139982172D01*
X134598291Y-139991048D01*
X134354611Y-140016404D01*
X134019824Y-140134052D01*
X133746509Y-140327963D01*
X133562276Y-140576451D01*
X133494730Y-140857835D01*
X133556201Y-141119860D01*
X133717534Y-141371288D01*
X133940994Y-141551544D01*
X134004036Y-141581719D01*
X134359049Y-141671094D01*
X134705277Y-141636861D01*
X135010727Y-141486935D01*
X135243408Y-141229235D01*
X135282872Y-141163727D01*
X135374368Y-141013403D01*
X135419542Y-140941647D01*
X135464897Y-140934046D01*
X135597157Y-140970792D01*
X135759490Y-141041198D01*
X135897084Y-141120477D01*
X135955128Y-141183845D01*
X135939438Y-141238873D01*
X135863705Y-141393947D01*
X135746366Y-141592871D01*
X135729649Y-141618732D01*
X135485981Y-141899321D01*
X135153240Y-142113592D01*
X134738252Y-142258188D01*
X134308327Y-142290334D01*
X133899804Y-142214514D01*
X133532661Y-142043468D01*
X133226872Y-141789938D01*
X133002413Y-141466667D01*
X132879259Y-141086396D01*
X132877386Y-140661868D01*
X132894989Y-140561061D01*
X132958666Y-140366284D01*
X133078284Y-140186697D01*
X133283823Y-139971367D01*
X133296570Y-139958991D01*
X133460327Y-139791582D01*
X133560816Y-139672791D01*
X133576722Y-139627635D01*
X133565350Y-139625518D01*
X133463929Y-139561808D01*
X133323867Y-139437036D01*
X133119369Y-139143373D01*
X133026074Y-138794355D01*
X133049555Y-138430141D01*
X133187573Y-138083159D01*
X133437888Y-137785837D01*
X133717879Y-137593978D01*
X134135013Y-137441905D01*
X134569099Y-137412431D01*
X134992589Y-137502581D01*
G37*
G36*
X126790117Y-141067025D02*
G01*
X126625207Y-141479354D01*
X126346850Y-141835308D01*
X125977514Y-142102925D01*
X125808763Y-142181379D01*
X125350143Y-142297525D01*
X124902728Y-142271067D01*
X124476094Y-142103548D01*
X124079814Y-141796516D01*
X123793443Y-141424638D01*
X123634977Y-141015740D01*
X123628372Y-140912837D01*
X124275716Y-140912837D01*
X124379629Y-141205552D01*
X124604257Y-141470566D01*
X124838208Y-141596198D01*
X125156077Y-141655627D01*
X125485712Y-141633444D01*
X125769391Y-141526861D01*
X125996024Y-141318916D01*
X126134954Y-141034322D01*
X126170243Y-140717011D01*
X126103840Y-140400125D01*
X125937694Y-140116807D01*
X125673754Y-139900201D01*
X125360802Y-139788404D01*
X125050349Y-139792235D01*
X124772060Y-139898390D01*
X124540693Y-140085198D01*
X124371007Y-140330989D01*
X124277762Y-140614093D01*
X124275716Y-140912837D01*
X123628372Y-140912837D01*
X123608002Y-140595507D01*
X123710626Y-140184193D01*
X123940959Y-139802052D01*
X124297108Y-139469338D01*
X124418101Y-139385697D01*
X124607563Y-139285295D01*
X124806481Y-139240121D01*
X125082146Y-139229629D01*
X125296480Y-139226304D01*
X125468422Y-139216312D01*
X125534425Y-139201982D01*
X125534329Y-139201295D01*
X125491118Y-139130126D01*
X125380360Y-138966297D01*
X125218295Y-138733436D01*
X125021165Y-138455175D01*
X124860530Y-138228969D01*
X124701251Y-137996235D01*
X124609916Y-137842293D01*
X124576293Y-137744952D01*
X124590149Y-137682023D01*
X124641250Y-137631315D01*
X124647406Y-137626483D01*
X124764015Y-137536533D01*
X124859343Y-137482345D01*
X124948159Y-137475840D01*
X125045231Y-137528935D01*
X125165328Y-137653548D01*
X125323216Y-137861597D01*
X125533666Y-138165001D01*
X125811445Y-138575679D01*
X126021944Y-138891351D01*
X126324127Y-139368458D01*
X126547492Y-139763653D01*
X126700288Y-140096051D01*
X126790766Y-140384770D01*
X126827174Y-140648925D01*
X126824697Y-140717011D01*
X126817763Y-140907635D01*
X126790117Y-141067025D01*
G37*
G36*
X132178556Y-140081823D02*
G01*
X132201130Y-140355100D01*
X131093086Y-140335100D01*
X129985043Y-140315100D01*
X129985043Y-139808547D01*
X132155983Y-139808547D01*
X132178556Y-140081823D01*
G37*
G36*
X128008320Y-137542796D02*
G01*
X128227173Y-137608277D01*
X128511362Y-137715452D01*
X128822399Y-137850642D01*
X129515268Y-138172224D01*
X129428861Y-138375286D01*
X129399365Y-138443069D01*
X129316272Y-138590322D01*
X129218073Y-138645448D01*
X129066867Y-138617158D01*
X128824752Y-138514167D01*
X128627152Y-138425189D01*
X128459183Y-138352833D01*
X128384275Y-138325071D01*
X128383995Y-138325172D01*
X128376788Y-138399480D01*
X128370304Y-138599174D01*
X128364805Y-138905610D01*
X128360553Y-139300142D01*
X128357810Y-139764126D01*
X128356838Y-140278917D01*
X128356838Y-142232763D01*
X127705556Y-142232763D01*
X127705556Y-137529060D01*
X127917543Y-137529060D01*
X128008320Y-137542796D01*
G37*
G36*
X142080914Y-137198209D02*
G01*
X142448616Y-137306831D01*
X142773712Y-137489871D01*
X143036482Y-137738790D01*
X143217204Y-138045051D01*
X143296158Y-138400114D01*
X143253623Y-138795441D01*
X143249288Y-138811252D01*
X143104602Y-139119670D01*
X142850129Y-139387599D01*
X142474405Y-139624334D01*
X141965966Y-139839164D01*
X141885236Y-139868681D01*
X141389790Y-140088088D01*
X141035589Y-140324341D01*
X140820141Y-140580258D01*
X140740952Y-140858656D01*
X140795531Y-141162353D01*
X140840339Y-141252750D01*
X141040601Y-141461117D01*
X141327202Y-141607398D01*
X141661891Y-141676130D01*
X142006419Y-141651852D01*
X142025775Y-141647085D01*
X142263170Y-141539080D01*
X142502704Y-141359816D01*
X142698411Y-141149762D01*
X142804321Y-140949389D01*
X142810928Y-140925683D01*
X142889643Y-140810561D01*
X143034268Y-140800745D01*
X143263816Y-140893942D01*
X143399800Y-140977384D01*
X143436917Y-141070491D01*
X143393065Y-141233374D01*
X143372101Y-141285703D01*
X143206527Y-141545697D01*
X142958765Y-141808732D01*
X142671994Y-142034044D01*
X142389395Y-142180870D01*
X142373392Y-142186455D01*
X141889284Y-142293261D01*
X141428583Y-142283318D01*
X141009927Y-142167492D01*
X140651956Y-141956651D01*
X140373307Y-141661662D01*
X140192619Y-141293390D01*
X140128531Y-140862705D01*
X140154772Y-140526840D01*
X140245578Y-140239714D01*
X140416563Y-139994036D01*
X140683337Y-139773285D01*
X141061510Y-139560938D01*
X141566691Y-139340474D01*
X141773712Y-139253118D01*
X142073106Y-139111248D01*
X142313594Y-138978775D01*
X142456652Y-138875813D01*
X142599121Y-138669219D01*
X142639061Y-138426671D01*
X142565602Y-138196438D01*
X142393338Y-138002409D01*
X142136862Y-137868472D01*
X141810768Y-137818518D01*
X141736378Y-137819421D01*
X141420446Y-137858073D01*
X141176053Y-137970484D01*
X140948291Y-138179646D01*
X140921901Y-138208891D01*
X140801920Y-138320333D01*
X140694515Y-138338802D01*
X140532194Y-138280686D01*
X140505876Y-138268720D01*
X140357535Y-138169247D01*
X140297009Y-138069683D01*
X140328832Y-137989344D01*
X140441292Y-137832339D01*
X140606943Y-137649504D01*
X140919378Y-137404238D01*
X141296575Y-137238375D01*
X141690327Y-137172544D01*
X142080914Y-137198209D01*
G37*
X157800800Y-135494800D02*
X157800800Y-136894800D01*
X159800800Y-136894800D02*
X159800800Y-135494800D01*
X159100800Y-134794800D02*
X158500800Y-134794800D01*
X158500800Y-137594800D02*
X159100800Y-137594800D01*
X158500800Y-134794800D02*
G75*
G03*
X157800800Y-135494800I0J-700000D01*
G01*
X159100800Y-137594800D02*
G75*
G03*
X159800800Y-136894800I1J699999D01*
G01*
X159800800Y-135494800D02*
G75*
G03*
X159100800Y-134794800I-700000J0D01*
G01*
X157800800Y-136894800D02*
G75*
G03*
X158500800Y-137594800I699999J-1D01*
G01*
X104471600Y-91643200D02*
G75*
G03*
X104471600Y-91643200I-1500000J0D01*
G01*
%LPC*%
D14*
X114528600Y-75526900D03*
D15*
X180340000Y-109220000D03*
D16*
X180340000Y-109220000D03*
D17*
X94999600Y-98511200D03*
X134874000Y-87630000D03*
D16*
X88900000Y-60960000D03*
D15*
X88900000Y-60960000D03*
D18*
X86174580Y-65907400D03*
X86174580Y-71557400D03*
X86174580Y-80995000D03*
X86174580Y-86645000D03*
D19*
X152086500Y-58674000D03*
X142561500Y-58674000D03*
D20*
X147324000Y-58547000D03*
D21*
X128143000Y-112268000D03*
D19*
X117157500Y-58674000D03*
D20*
X121920000Y-58547000D03*
D19*
X126682500Y-58674000D03*
D18*
X183065420Y-86645000D03*
X183065420Y-80995000D03*
D16*
X88900000Y-109220000D03*
D15*
X88900000Y-109220000D03*
D22*
X155218900Y-76530200D03*
D23*
X162445492Y-134110010D03*
X108064491Y-137160010D03*
D24*
X118745000Y-98933000D03*
D21*
X123291600Y-112268000D03*
D24*
X109855000Y-98806000D03*
D25*
X97026500Y-106426000D03*
D16*
X180340000Y-60960000D03*
D15*
X180340000Y-60960000D03*
D26*
X135390000Y-95500300D03*
D27*
X147574000Y-68791700D03*
D28*
X122174000Y-68580000D03*
D18*
X183065420Y-71557400D03*
X183065420Y-65907400D03*
D29*
X102108000Y-103174800D03*
X154736800Y-125323600D03*
D30*
X151798500Y-100330000D03*
D31*
X151798500Y-102870000D03*
X154338500Y-100330000D03*
X154338500Y-102870000D03*
X156878500Y-100330000D03*
X156878500Y-102870000D03*
X159418500Y-100330000D03*
X159418500Y-102870000D03*
X161958500Y-100330000D03*
X161958500Y-102870000D03*
X164498500Y-100330000D03*
X164498500Y-102870000D03*
X167038500Y-100330000D03*
X167038500Y-102870000D03*
X169578500Y-100330000D03*
X169578500Y-102870000D03*
X172118500Y-100330000D03*
X172118500Y-102870000D03*
X174658500Y-100330000D03*
X174658500Y-102870000D03*
D29*
X113639600Y-123291600D03*
X125933200Y-107645200D03*
D32*
X158750000Y-121554000D03*
D33*
X158750000Y-120254000D03*
D29*
X119634000Y-107645200D03*
X154736800Y-121259600D03*
X89662000Y-91643200D03*
X119583200Y-88442800D03*
X108966000Y-88442800D03*
D32*
X158800800Y-136844800D03*
D33*
X158800800Y-135544800D03*
D29*
X102971600Y-91643200D03*
M02*
