M48
; DRILL file {KiCad (6.0.9)} date Thu Apr 20 15:38:16 2023
; FORMAT={-:-/ absolute / metric / decimal}
; #@! TF.CreationDate,2023-04-20T15:38:16-04:00
; #@! TF.GenerationSoftware,Kicad,Pcbnew,(6.0.9)
; #@! TF.FileFunction,Plated,1,4,PTH
FMAT,2
METRIC
; #@! TA.AperFunction,Plated,PTH,ViaDrill
T1C0.229
; #@! TA.AperFunction,Plated,PTH,ViaDrill
T2C0.457
; #@! TA.AperFunction,Plated,PTH,ComponentDrill
T3C1.000
; #@! TA.AperFunction,Plated,PTH,ComponentDrill
T4C1.020
; #@! TA.AperFunction,Plated,PTH,ComponentDrill
T5C1.981
; #@! TA.AperFunction,Plated,PTH,ComponentDrill
T6C3.200
%
G90
G05
T1
X105.918Y-70.993
X106.934Y-70.993
X108.077Y-71.298
X111.506Y-69.215
X112.497Y-71.501
X112.852Y-68.707
X114.554Y-69.139
X115.824Y-69.139
X117.094Y-68.428
X117.094Y-69.24
X117.34Y-79.17
X118.618Y-76.708
X118.821Y-72.212
X118.872Y-65.278
X119.38Y-77.47
X121.22Y-57.023
X121.22Y-57.661
X121.22Y-58.298
X121.22Y-58.936
X122.62Y-57.023
X122.62Y-57.661
X122.62Y-58.298
X122.62Y-58.936
X123.19Y-78.308
X133.934Y-90.627
X133.934Y-91.821
X135.331Y-90.624
X135.331Y-91.821
X146.624Y-57.023
X146.624Y-57.63
X146.624Y-58.238
X146.624Y-58.845
X148.024Y-57.023
X148.024Y-57.63
X148.024Y-58.238
X148.024Y-58.845
X157.137Y-79.718
X158.524Y-79.276
X159.411Y-81.076
X160.171Y-72.852
T2
X85.085Y-78.765
X85.09Y-63.5
X85.09Y-67.31
X85.09Y-70.104
X85.09Y-73.66
X85.09Y-76.2
X85.09Y-82.423
X85.09Y-85.217
X85.09Y-88.9
X85.09Y-91.44
X85.09Y-93.98
X85.09Y-96.52
X85.09Y-99.06
X85.09Y-101.6
X85.09Y-104.14
X85.09Y-106.68
X86.995Y-67.31
X86.995Y-70.104
X86.995Y-74.93
X86.995Y-77.47
X86.995Y-82.423
X86.995Y-85.217
X86.995Y-90.17
X86.995Y-92.71
X86.995Y-95.25
X86.995Y-97.79
X86.995Y-100.33
X86.995Y-102.87
X86.995Y-105.41
X89.535Y-73.66
X89.535Y-78.74
X89.535Y-88.9
X89.713Y-100.651
X90.424Y-103.378
X90.703Y-96.435
X91.059Y-89.535
X91.415Y-57.145
X91.415Y-113.025
X91.44Y-64.135
X91.923Y-101.693
X92.075Y-71.12
X92.075Y-76.2
X92.075Y-81.28
X92.71Y-59.055
X92.71Y-111.125
X93.821Y-87.281
X93.853Y-88.519
X93.98Y-57.15
X93.98Y-61.595
X93.98Y-66.675
X93.98Y-113.03
X94.107Y-97.629
X94.107Y-98.518
X94.107Y-99.407
X94.183Y-94.285
X94.615Y-73.66
X94.615Y-78.74
X94.996Y-97.629
X94.996Y-98.518
X94.996Y-99.407
X95.047Y-101.6
X95.25Y-59.055
X95.25Y-111.125
X95.352Y-94.285
X95.758Y-102.87
X95.885Y-87.122
X95.885Y-88.392
X95.885Y-97.629
X95.885Y-98.518
X95.885Y-99.407
X96.368Y-90.526
X96.52Y-57.15
X96.52Y-64.135
X96.52Y-113.03
X97.0Y-95.171
X97.041Y-105.909
X97.041Y-106.925
X97.79Y-59.055
X97.79Y-111.125
X98.806Y-102.108
X98.933Y-86.233
X98.933Y-87.503
X99.06Y-57.15
X99.06Y-61.595
X99.06Y-113.03
X99.073Y-107.078
X100.33Y-59.055
X100.33Y-111.125
X100.457Y-97.536
X100.838Y-86.233
X100.838Y-87.503
X101.498Y-89.967
X101.575Y-57.145
X101.6Y-113.03
X101.696Y-93.858
X101.808Y-96.549
X102.87Y-59.055
X102.87Y-111.125
X103.886Y-65.938
X104.14Y-57.15
X104.14Y-61.595
X104.14Y-113.03
X104.775Y-72.263
X105.41Y-59.055
X105.41Y-111.125
X105.41Y-114.3
X105.41Y-116.84
X105.41Y-119.38
X105.41Y-121.92
X105.41Y-124.46
X105.41Y-127.0
X105.435Y-68.986
X106.68Y-57.15
X106.799Y-92.954
X106.807Y-99.822
X106.934Y-101.473
X107.315Y-113.03
X107.315Y-115.57
X107.315Y-118.11
X107.315Y-120.65
X107.315Y-123.19
X107.315Y-125.73
X107.442Y-82.448
X107.442Y-83.464
X107.95Y-59.055
X107.95Y-72.873
X108.712Y-68.783
X108.737Y-84.557
X109.22Y-57.15
X109.22Y-61.595
X109.347Y-98.806
X109.474Y-66.294
X109.576Y-85.242
X110.236Y-82.245
X110.347Y-101.548
X110.363Y-98.806
X110.49Y-59.055
X110.541Y-86.309
X110.617Y-65.659
X111.455Y-84.226
X111.76Y-57.15
X111.76Y-89.535
X112.047Y-87.309
X112.116Y-81.966
X112.395Y-94.869
X112.395Y-95.885
X112.522Y-65.583
X113.03Y-59.055
X113.513Y-74.498
X113.513Y-75.514
X113.513Y-76.53
X114.043Y-87.655
X114.046Y-81.891
X114.3Y-57.15
X114.3Y-61.595
X114.529Y-74.498
X114.529Y-75.514
X114.529Y-76.53
X114.605Y-66.218
X114.935Y-64.262
X114.935Y-65.278
X115.062Y-92.71
X115.087Y-84.912
X115.087Y-85.979
X115.545Y-74.498
X115.545Y-75.514
X115.545Y-76.53
X115.57Y-57.15
X116.205Y-99.822
X116.205Y-100.838
X116.205Y-126.238
X116.84Y-89.535
X117.475Y-126.238
X117.856Y-64.516
X117.856Y-65.913
X117.856Y-67.056
X117.856Y-70.358
X117.856Y-71.374
X118.288Y-98.933
X118.643Y-80.772
X118.745Y-126.238
X119.126Y-57.15
X119.126Y-58.42
X119.165Y-101.716
X119.304Y-98.933
X119.38Y-112.395
X119.736Y-81.382
X120.142Y-123.571
X120.142Y-126.238
X120.396Y-57.15
X120.396Y-58.42
X120.828Y-81.382
X121.158Y-67.564
X121.158Y-68.58
X121.158Y-69.596
X121.158Y-95.987
X121.158Y-110.744
X121.158Y-114.046
X121.183Y-94.869
X121.641Y-108.229
X121.717Y-75.667
X121.92Y-89.535
X121.92Y-104.775
X122.174Y-67.564
X122.174Y-68.58
X122.174Y-69.596
X122.555Y-126.238
X122.758Y-112.268
X122.809Y-77.216
X122.809Y-116.332
X123.19Y-67.564
X123.19Y-68.58
X123.19Y-69.596
X123.368Y-74.371
X123.444Y-57.15
X123.444Y-58.42
X123.774Y-112.268
X123.825Y-126.238
X124.46Y-86.995
X124.46Y-92.075
X124.46Y-97.155
X124.46Y-102.235
X124.714Y-57.15
X124.714Y-58.42
X125.095Y-126.238
X125.222Y-75.006
X125.349Y-77.978
X125.857Y-111.404
X125.857Y-114.046
X126.365Y-77.978
X126.365Y-126.238
X126.555Y-69.088
X126.581Y-68.072
X126.85Y-94.11
X127.0Y-89.535
X127.635Y-112.268
X127.635Y-116.332
X127.635Y-126.238
X128.041Y-64.287
X128.143Y-95.758
X128.27Y-57.15
X128.397Y-102.743
X128.651Y-112.268
X129.032Y-116.205
X129.032Y-117.094
X129.294Y-97.227
X129.294Y-98.243
X129.294Y-99.259
X129.294Y-100.275
X129.515Y-57.145
X129.54Y-61.595
X129.54Y-86.995
X129.654Y-70.528
X129.705Y-67.208
X130.302Y-114.046
X130.429Y-108.204
X130.429Y-117.475
X130.683Y-106.934
X130.734Y-94.123
X130.8Y-59.051
X130.81Y-120.015
X131.191Y-109.728
X131.572Y-81.28
X131.597Y-95.545
X131.826Y-102.683
X132.08Y-57.15
X132.08Y-63.5
X132.715Y-91.761
X133.071Y-101.946
X133.35Y-59.055
X133.35Y-112.395
X133.35Y-117.475
X133.883Y-99.695
X133.985Y-105.41
X133.985Y-107.315
X133.985Y-109.22
X134.061Y-101.946
X134.366Y-87.122
X134.366Y-88.138
X134.366Y-94.479
X134.366Y-95.495
X134.366Y-96.511
X134.62Y-57.15
X134.62Y-61.595
X135.382Y-87.122
X135.382Y-88.138
X135.382Y-94.479
X135.382Y-95.495
X135.382Y-96.511
X135.89Y-59.055
X135.89Y-109.22
X135.89Y-114.935
X135.89Y-120.015
X136.398Y-94.479
X136.398Y-95.495
X136.398Y-96.511
X137.16Y-57.15
X137.16Y-63.5
X137.786Y-109.22
X138.43Y-59.055
X138.43Y-81.28
X138.43Y-86.995
X138.43Y-112.395
X138.43Y-117.568
X139.04Y-92.67
X139.065Y-110.49
X139.116Y-95.495
X139.7Y-57.15
X139.7Y-61.595
X140.13Y-90.45
X140.335Y-109.22
X140.462Y-99.254
X140.97Y-57.15
X140.97Y-114.935
X140.97Y-120.015
X141.326Y-93.92
X141.808Y-75.616
X142.24Y-63.5
X142.24Y-101.6
X142.24Y-109.22
X143.002Y-74.549
X143.51Y-112.395
X143.51Y-117.475
X143.522Y-87.007
X143.56Y-92.49
X143.57Y-78.43
X143.64Y-95.98
X143.815Y-93.894
X144.145Y-101.6
X144.145Y-103.505
X144.145Y-105.41
X144.145Y-107.315
X144.145Y-109.22
X144.272Y-74.422
X144.501Y-81.483
X144.526Y-57.15
X144.526Y-58.42
X144.577Y-77.521
X145.288Y-74.422
X145.796Y-57.15
X145.796Y-58.42
X146.038Y-114.923
X146.05Y-99.06
X146.05Y-104.775
X146.05Y-109.855
X146.062Y-89.547
X147.066Y-68.275
X147.066Y-69.291
X147.32Y-81.28
X147.676Y-77.673
X148.082Y-68.275
X148.082Y-69.291
X148.586Y-98.04
X148.59Y-92.075
X148.59Y-102.235
X148.59Y-107.315
X148.59Y-112.395
X148.602Y-87.007
X148.844Y-57.15
X148.844Y-58.42
X150.114Y-57.15
X150.114Y-58.42
X150.724Y-72.161
X151.13Y-89.535
X151.13Y-109.855
X151.714Y-72.136
X151.91Y-81.23
X152.4Y-127.864
X152.73Y-69.774
X152.753Y-66.802
X153.162Y-63.881
X153.67Y-57.15
X153.67Y-127.864
X153.769Y-66.802
X153.772Y-69.799
X154.203Y-75.514
X154.203Y-76.53
X154.203Y-77.546
X154.559Y-63.881
X154.737Y-73.304
X154.915Y-57.145
X154.94Y-61.595
X155.092Y-71.577
X155.219Y-75.514
X155.219Y-76.53
X155.219Y-77.546
X155.524Y-68.301
X155.727Y-67.158
X155.753Y-66.142
X156.21Y-59.055
X156.235Y-75.514
X156.235Y-76.53
X156.235Y-77.546
X156.337Y-82.677
X156.718Y-68.326
X157.353Y-123.507
X157.353Y-124.727
X157.353Y-125.971
X157.48Y-57.15
X157.607Y-86.36
X157.658Y-72.492
X157.861Y-82.931
X158.572Y-65.38
X158.75Y-59.055
X158.877Y-87.757
X159.004Y-85.598
X159.258Y-67.056
X159.309Y-70.587
X160.02Y-57.15
X160.02Y-61.595
X160.579Y-67.488
X160.579Y-68.326
X161.29Y-59.055
X161.29Y-132.715
X161.442Y-138.938
X161.442Y-140.157
X161.442Y-141.402
X161.544Y-82.169
X161.544Y-83.185
X161.925Y-76.2
X161.925Y-115.57
X161.925Y-118.11
X161.925Y-120.65
X161.925Y-123.19
X161.925Y-125.73
X162.077Y-66.624
X162.113Y-89.027
X162.56Y-57.15
X162.738Y-69.367
X163.825Y-124.485
X163.83Y-59.055
X163.83Y-114.3
X163.83Y-116.84
X163.83Y-119.38
X163.83Y-121.92
X164.465Y-73.66
X164.465Y-78.74
X165.075Y-57.145
X165.094Y-113.03
X165.1Y-61.595
X165.1Y-66.675
X165.1Y-90.17
X166.37Y-59.055
X167.005Y-71.12
X167.005Y-76.2
X167.005Y-81.28
X167.64Y-57.15
X167.64Y-64.135
X167.64Y-113.03
X168.91Y-59.055
X169.545Y-73.66
X169.545Y-78.74
X169.545Y-86.36
X170.18Y-57.15
X170.18Y-61.595
X170.18Y-66.675
X170.18Y-113.03
X171.45Y-59.055
X172.085Y-71.12
X172.085Y-76.2
X172.085Y-81.28
X172.085Y-88.9
X172.695Y-113.025
X172.72Y-57.15
X172.72Y-64.135
X173.355Y-98.044
X173.99Y-59.055
X174.625Y-73.66
X174.625Y-78.74
X174.625Y-86.36
X175.26Y-57.15
X175.26Y-61.595
X175.26Y-66.675
X175.26Y-113.03
X176.53Y-59.055
X177.165Y-71.12
X177.165Y-76.2
X177.165Y-81.28
X177.165Y-88.9
X177.165Y-93.98
X177.165Y-99.06
X177.165Y-104.14
X177.8Y-57.15
X177.8Y-113.03
X179.705Y-73.66
X179.705Y-78.74
X179.705Y-91.44
X179.705Y-96.52
X179.705Y-101.6
X182.118Y-67.31
X182.118Y-70.104
X182.118Y-82.423
X182.118Y-85.217
X182.245Y-74.93
X182.245Y-77.47
X182.245Y-90.17
X182.245Y-92.71
X182.245Y-95.25
X182.245Y-97.79
X182.245Y-100.33
X182.245Y-102.87
X182.245Y-105.41
X184.023Y-67.31
X184.023Y-70.104
X184.023Y-82.423
X184.023Y-85.217
X184.145Y-78.765
X184.145Y-94.005
X184.145Y-106.705
X184.15Y-63.5
X184.15Y-73.66
X184.15Y-76.2
X184.15Y-88.9
X184.15Y-91.44
X184.15Y-96.52
X184.15Y-99.06
X184.15Y-101.6
X184.15Y-104.14
T3
X89.662Y-91.643
X102.108Y-103.175
X102.972Y-91.643
X108.966Y-88.443
X113.64Y-123.292
X119.583Y-88.443
X119.634Y-107.645
X125.933Y-107.645
X154.737Y-121.26
X154.737Y-125.324
T4
X151.798Y-100.33
X151.798Y-102.87
X154.338Y-100.33
X154.338Y-102.87
X156.879Y-100.33
X156.879Y-102.87
X159.418Y-100.33
X159.418Y-102.87
X161.958Y-100.33
X161.958Y-102.87
X164.498Y-100.33
X164.498Y-102.87
X167.038Y-100.33
X167.038Y-102.87
X169.578Y-100.33
X169.578Y-102.87
X172.118Y-100.33
X172.118Y-102.87
X174.659Y-100.33
X174.659Y-102.87
T5
X117.157Y-58.674
X126.682Y-58.674
X142.561Y-58.674
X152.087Y-58.674
T6
X88.9Y-60.96
X88.9Y-109.22
X180.34Y-60.96
X180.34Y-109.22
T0
M30
