%TF.GenerationSoftware,KiCad,Pcbnew,(6.0.9)*%
%TF.CreationDate,2023-04-20T15:37:57-04:00*%
%TF.ProjectId,S23-16_PCB,5332332d-3136-45f5-9043-422e6b696361,2.0*%
%TF.SameCoordinates,Original*%
%TF.FileFunction,Soldermask,Bot*%
%TF.FilePolarity,Negative*%
%FSLAX46Y46*%
G04 Gerber Fmt 4.6, Leading zero omitted, Abs format (unit mm)*
G04 Created by KiCad (PCBNEW (6.0.9)) date 2023-04-20 15:37:57*
%MOMM*%
%LPD*%
G01*
G04 APERTURE LIST*
G04 Aperture macros list*
%AMFreePoly0*
4,1,22,0.500000,-0.750000,0.000000,-0.750000,0.000000,-0.745033,-0.079941,-0.743568,-0.215256,-0.701293,-0.333266,-0.622738,-0.424486,-0.514219,-0.481581,-0.384460,-0.499164,-0.250000,-0.500000,-0.250000,-0.500000,0.250000,-0.499164,0.250000,-0.499963,0.256109,-0.478152,0.396186,-0.417904,0.524511,-0.324060,0.630769,-0.204165,0.706417,-0.067858,0.745374,0.000000,0.744959,0.000000,0.750000,
0.500000,0.750000,0.500000,-0.750000,0.500000,-0.750000,$1*%
%AMFreePoly1*
4,1,20,0.000000,0.744959,0.073905,0.744508,0.209726,0.703889,0.328688,0.626782,0.421226,0.519385,0.479903,0.390333,0.500000,0.250000,0.500000,-0.250000,0.499851,-0.262216,0.476331,-0.402017,0.414519,-0.529596,0.319384,-0.634700,0.198574,-0.708877,0.061801,-0.746166,0.000000,-0.745033,0.000000,-0.750000,-0.500000,-0.750000,-0.500000,0.750000,0.000000,0.750000,0.000000,0.744959,
0.000000,0.744959,$1*%
G04 Aperture macros list end*
%ADD10R,4.500000X4.500000*%
%ADD11C,3.600000*%
%ADD12C,6.400000*%
%ADD13R,2.500000X2.500000*%
%ADD14R,4.200000X1.350000*%
%ADD15C,2.489200*%
%ADD16R,12.700000X4.826000*%
%ADD17R,2.438400X1.701800*%
%ADD18R,3.570000X3.570000*%
%ADD19C,1.270000*%
%ADD20R,2.380000X1.650000*%
%ADD21R,1.000000X1.600000*%
%ADD22R,3.600000X3.600000*%
%ADD23R,1.600000X1.600000*%
%ADD24R,2.810000X2.810000*%
%ADD25C,2.000000*%
%ADD26R,1.400000X1.400000*%
%ADD27C,1.400000*%
%ADD28FreePoly0,90.000000*%
%ADD29FreePoly1,90.000000*%
G04 APERTURE END LIST*
D10*
X114528600Y-75526900D03*
D11*
X180340000Y-109220000D03*
D12*
X180340000Y-109220000D03*
D13*
X94999600Y-98511200D03*
X134874000Y-87630000D03*
D12*
X88900000Y-60960000D03*
D11*
X88900000Y-60960000D03*
D14*
X86174580Y-65907400D03*
X86174580Y-71557400D03*
X86174580Y-80995000D03*
X86174580Y-86645000D03*
D15*
X152086500Y-58674000D03*
X142561500Y-58674000D03*
D16*
X147324000Y-58547000D03*
D17*
X128143000Y-112268000D03*
D15*
X117157500Y-58674000D03*
D16*
X121920000Y-58547000D03*
D15*
X126682500Y-58674000D03*
D14*
X183065420Y-86645000D03*
X183065420Y-80995000D03*
D12*
X88900000Y-109220000D03*
D11*
X88900000Y-109220000D03*
D18*
X155218900Y-76530200D03*
D19*
X162445492Y-134110010D03*
X108064491Y-137160010D03*
D20*
X118745000Y-98933000D03*
D17*
X123291600Y-112268000D03*
D20*
X109855000Y-98806000D03*
D21*
X97026500Y-106426000D03*
D12*
X180340000Y-60960000D03*
D11*
X180340000Y-60960000D03*
D22*
X135390000Y-95500300D03*
D23*
X147574000Y-68791700D03*
D24*
X122174000Y-68580000D03*
D14*
X183065420Y-71557400D03*
X183065420Y-65907400D03*
D25*
X102108000Y-103174800D03*
X154736800Y-125323600D03*
D26*
X151798500Y-100330000D03*
D27*
X151798500Y-102870000D03*
X154338500Y-100330000D03*
X154338500Y-102870000D03*
X156878500Y-100330000D03*
X156878500Y-102870000D03*
X159418500Y-100330000D03*
X159418500Y-102870000D03*
X161958500Y-100330000D03*
X161958500Y-102870000D03*
X164498500Y-100330000D03*
X164498500Y-102870000D03*
X167038500Y-100330000D03*
X167038500Y-102870000D03*
X169578500Y-100330000D03*
X169578500Y-102870000D03*
X172118500Y-100330000D03*
X172118500Y-102870000D03*
X174658500Y-100330000D03*
X174658500Y-102870000D03*
D25*
X113639600Y-123291600D03*
X125933200Y-107645200D03*
D28*
X158750000Y-121554000D03*
D29*
X158750000Y-120254000D03*
D25*
X119634000Y-107645200D03*
X154736800Y-121259600D03*
X89662000Y-91643200D03*
X119583200Y-88442800D03*
X108966000Y-88442800D03*
D28*
X158800800Y-136844800D03*
D29*
X158800800Y-135544800D03*
D25*
X102971600Y-91643200D03*
M02*
